<svg width="1000" height="1000" viewBox="0 0 1000 1000" fill="none" xmlns="http://www.w3.org/2000/svg">
<path d="M259.839 609.643H315.313V657.519H206V176.223H540.44C555.939 189.268 568.942 210.622 576.82 224.357H259.839V609.643Z" fill="white"/>
<path d="M588.316 609.643C570.427 610.138 550.644 609.643 530.667 609.643H588.316Z" fill="white"/>
<path d="M582.051 657.519C582.051 657.519 584.312 657.497 588.316 657.368V657.519H582.051Z" fill="white"/>
<path d="M566.143 709.721C520.054 743.173 458.208 742.571 452.352 742.528C450.544 742.506 411.645 742.463 376.686 742.42V906.863H321.211V233.312H376.686V693.21C376.686 693.21 408.502 694.222 457.454 693.21C506.385 692.177 536.781 664.859 536.781 664.859H609.39C609.39 664.859 612.232 676.268 566.143 709.721Z" fill="white"/>
<path d="M644.328 595.241C644.328 595.241 624.265 604.283 582.331 602.302C582.331 602.302 625.083 491.375 609.412 334.746C593.74 178.117 528.493 146.58 457.777 141.134H376.492V169.7H321.211V93H469.488C489.249 93.409 574.711 99.4796 618.755 173.23C668.804 256.97 688.372 431.552 644.328 595.241Z" fill="white"/>
<path d="M724.817 627.726C688.071 652.159 610.811 656.572 588.316 657.368C584.312 657.497 582.051 657.519 582.051 657.519H383.424V609.643H530.667C550.644 609.643 570.427 610.138 588.316 609.643C629.001 608.545 662.196 603.336 684.024 588.977C737.905 553.587 736.226 430.734 727.25 333.648C718.294 236.584 653.563 233.312 653.563 233.312C645.964 203.949 629.905 178.117 629.905 178.117C748.195 190.624 776.115 241.255 789.225 357.629C801.495 466.619 786.814 586.545 724.817 627.726Z" fill="white"/>
</svg>
