<svg xmlns="http://www.w3.org/2000/svg" width="156" height="156" viewBox="0 0 156 156" fill="none">
    <g opacity="0.05">
    <path d="M73.125 42.25V19.5H45.1912C40.8395 19.5 36.7445 21.4175 33.956 24.7617L22.8898 38.0413C21.8368 39.3022 21.0275 40.7323 20.4555 42.25H73.125ZM82.875 42.25H135.545C134.973 40.7323 134.163 39.3022 133.11 38.0413L122.044 24.7617C119.252 21.4175 115.161 19.5 110.809 19.5H82.875V42.25ZM19.5 52V118.625C19.5 128.482 27.521 136.5 37.375 136.5H118.625C128.479 136.5 136.5 128.482 136.5 118.625V52H19.5ZM92.625 74.75H63.375C60.684 74.75 58.5 72.5692 58.5 69.875C58.5 67.1808 60.684 65 63.375 65H92.625C95.316 65 97.5 67.1808 97.5 69.875C97.5 72.5692 95.316 74.75 92.625 74.75Z" fill="white"/>
    </g>
</svg>