<svg xmlns="http://www.w3.org/2000/svg" width="156" height="156" fill="none" opacity=".05"><path d="M14.625 16.25a4.879 4.879 0 0 0-4.945 4.875 4.865 4.865 0 0 0 1.453 3.472A4.89 4.89 0 0 0 14.625 26h1.625v65.114c-5.505.79-9.75 5.541-9.75 11.261v32.5a4.88 4.88 0 0 0 4.875 4.875H42.25a3.25 3.25 0 0 0 3.25-3.25v-22.75a3.25 3.25 0 0 1 3.25-3.25h9.75a3.25 3.25 0 0 1 3.25 3.25v22.75a3.25 3.25 0 0 0 3.25 3.25h30.875a4.88 4.88 0 0 0 4.875-4.875v-32.5c0-5.72-4.245-10.471-9.75-11.261V26h1.625a4.879 4.879 0 0 0 4.945-4.875 4.865 4.865 0 0 0-1.453-3.472 4.89 4.89 0 0 0-3.492-1.403h-78zM39 39h6.5a3.25 3.25 0 0 1 3.25 3.25v6.5A3.25 3.25 0 0 1 45.5 52H39a3.25 3.25 0 0 1-3.25-3.25v-6.5A3.25 3.25 0 0 1 39 39zm22.75 0h6.5a3.25 3.25 0 0 1 3.25 3.25v6.5A3.25 3.25 0 0 1 68.25 52h-6.5a3.25 3.25 0 0 1-3.25-3.25v-6.5A3.25 3.25 0 0 1 61.75 39zm35.75 0v47.461c5.818 2.996 9.75 9.089 9.75 15.914v32.5c0 1.752-.434 3.393-1.143 4.875h38.518a4.87 4.87 0 0 0 4.875-4.875v-78c0-9.847-8.027-17.875-17.875-17.875H97.5zM39 61.75h6.5A3.25 3.25 0 0 1 48.75 65v6.5a3.25 3.25 0 0 1-3.25 3.25H39a3.25 3.25 0 0 1-3.25-3.25V65A3.25 3.25 0 0 1 39 61.75zm22.75 0h6.5A3.25 3.25 0 0 1 71.5 65v6.5a3.25 3.25 0 0 1-3.25 3.25h-6.5a3.25 3.25 0 0 1-3.25-3.25V65a3.25 3.25 0 0 1 3.25-3.25zm58.5 0h6.5A3.25 3.25 0 0 1 130 65v6.5a3.25 3.25 0 0 1-3.25 3.25h-6.5A3.25 3.25 0 0 1 117 71.5V65a3.25 3.25 0 0 1 3.25-3.25zM39 84.5h6.5a3.25 3.25 0 0 1 3.25 3.25v6.5a3.25 3.25 0 0 1-3.25 3.25H39a3.25 3.25 0 0 1-3.25-3.25v-6.5A3.25 3.25 0 0 1 39 84.5zm22.75 0h6.5a3.25 3.25 0 0 1 3.25 3.25v6.5a3.25 3.25 0 0 1-3.25 3.25h-6.5a3.25 3.25 0 0 1-3.25-3.25v-6.5a3.25 3.25 0 0 1 3.25-3.25zm58.5 0h6.5a3.25 3.25 0 0 1 3.25 3.25v6.5a3.25 3.25 0 0 1-3.25 3.25h-6.5a3.25 3.25 0 0 1-3.25-3.25v-6.5a3.25 3.25 0 0 1 3.25-3.25zm0 22.75h6.5a3.25 3.25 0 0 1 3.25 3.25v6.5a3.25 3.25 0 0 1-3.25 3.25h-6.5A3.25 3.25 0 0 1 117 117v-6.5a3.25 3.25 0 0 1 3.25-3.25zm-97.5 3.25h6.5a3.25 3.25 0 0 1 3.25 3.25v6.5a3.25 3.25 0 0 1-3.25 3.25h-6.5a3.25 3.25 0 0 1-3.25-3.25v-6.5a3.25 3.25 0 0 1 3.25-3.25zm55.25 0h6.5a3.25 3.25 0 0 1 3.25 3.25v6.5a3.25 3.25 0 0 1-3.25 3.25H78a3.25 3.25 0 0 1-3.25-3.25v-6.5A3.25 3.25 0 0 1 78 110.5z" fill="#fff"/></svg>