<svg width="156" height="156" viewBox="0 0 156 156" fill="none" xmlns="http://www.w3.org/2000/svg">
<g opacity="0.05">
<path d="M78 13C42.1592 13 13 42.1592 13 78C13 113.841 42.1592 143 78 143C113.841 143 143 113.841 143 78C143 42.1592 113.841 13 78 13ZM78 22.75C108.572 22.75 133.25 47.4285 133.25 78C133.25 108.571 108.572 133.25 78 133.25C47.4285 133.25 22.75 108.571 22.75 78C22.75 47.4285 47.4285 22.75 78 22.75ZM78 55.25C59.2638 55.25 40.065 60.0578 31.8652 62.3848L31.8525 62.3911C30.1918 67.2954 29.25 72.5335 29.25 78C29.25 82.8132 29.9749 87.4502 31.2749 91.8442L31.2812 91.8506C55.1688 95.9716 62.1374 114.465 64.1621 124.725V124.731C68.5529 126.028 73.19 126.75 78 126.75C82.81 126.75 87.4471 126.028 91.8379 124.731V124.725C93.8594 114.465 100.831 95.9683 124.719 91.8506L124.725 91.8442C126.025 87.4502 126.75 82.8132 126.75 78C126.75 72.5335 125.808 67.2954 124.147 62.3911L124.135 62.3848C115.935 60.0578 96.7363 55.25 78 55.25ZM78 71.5C83.3852 71.5 87.75 75.8647 87.75 81.25C87.75 86.6352 83.3852 91 78 91C72.6147 91 68.25 86.6352 68.25 81.25C68.25 75.8647 72.6147 71.5 78 71.5Z" fill="white"/>
</g>
</svg>
