<svg width="1440" height="502" viewBox="0 0 1440 502" fill="none" xmlns="http://www.w3.org/2000/svg">
<g opacity="0.03">
<g clip-path="url(#clip0_11_583)">
<path d="M624.934 501.871L563.266 466.255V395.026L624.934 359.409L686.603 395.026V466.255L624.934 501.871ZM565.95 464.708L624.934 498.774L683.923 464.708V396.572L624.934 362.506L565.95 396.572V464.708Z" fill="#00617C"/>
<path d="M684.603 394.659L624.352 429.445L625.693 431.765L685.943 396.979L684.603 394.659Z" fill="#00617C"/>
<path d="M565.295 394.65L563.954 396.97L624.32 431.836L625.661 429.516L565.295 394.65Z" fill="#00617C"/>
<path d="M626.272 430.084H623.592V500.325H626.272V430.084Z" fill="#00617C"/>
<path d="M564.608 606.396L502.939 570.779V499.55L564.608 463.933L626.277 499.55V570.779L564.608 606.396ZM505.624 569.233L564.608 603.299L623.596 569.233V501.096L564.608 467.03L505.624 501.096V569.233Z" fill="#00617C"/>
<path d="M624.262 499.16L564.017 533.956L565.358 536.276L625.603 501.48L624.262 499.16Z" fill="#00617C"/>
<path d="M504.969 499.177L503.628 501.497L563.994 536.364L565.335 534.044L504.969 499.177Z" fill="#00617C"/>
<path d="M685.261 606.396L623.592 570.779V499.55L685.261 463.933L746.93 499.55V570.779L685.261 606.396ZM626.277 569.233L685.261 603.299L744.245 569.233V501.096L685.261 467.03L626.277 501.096V569.233Z" fill="#00617C"/>
<path d="M744.931 499.213L684.687 534.01L686.028 536.33L746.273 501.533L744.931 499.213Z" fill="#00617C"/>
<path d="M625.624 499.178L624.283 501.498L684.649 536.365L685.99 534.045L625.624 499.178Z" fill="#00617C"/>
<path d="M443.951 606.396L382.282 570.779V499.55L443.951 463.933L505.619 499.55V570.779L443.951 606.396ZM384.967 569.233L443.951 603.299L502.939 569.233V501.096L443.951 467.03L384.967 501.096V569.233Z" fill="#00617C"/>
<path d="M503.613 499.185L443.363 533.971L444.703 536.291L504.954 501.506L503.613 499.185Z" fill="#00617C"/>
<path d="M384.307 499.177L382.966 501.497L443.332 536.364L444.673 534.044L384.307 499.177Z" fill="#00617C"/>
<path d="M323.298 606.396L261.629 570.779V499.55L323.298 463.933L384.967 499.55V570.779L323.298 606.396ZM264.309 569.233L323.298 603.299L382.286 569.233V501.096L323.298 467.03L264.309 501.096V569.233Z" fill="#00617C"/>
<path d="M382.952 499.158L322.708 533.955L324.049 536.275L384.293 501.478L382.952 499.158Z" fill="#00617C"/>
<path d="M263.652 499.177L262.311 501.497L322.677 536.363L324.018 534.043L263.652 499.177Z" fill="#00617C"/>
<path d="M202.645 606.396L140.976 570.779V499.55L202.645 463.933L264.314 499.55V570.779L202.645 606.396ZM143.661 569.233L202.645 603.299L261.629 569.233V501.096L202.645 467.03L143.661 501.096V569.233Z" fill="#00617C"/>
<path d="M262.3 499.187L202.055 533.983L203.396 536.303L263.641 501.507L262.3 499.187Z" fill="#00617C"/>
<path d="M142.993 499.172L141.652 501.492L202.018 536.359L203.359 534.039L142.993 499.172Z" fill="#00617C"/>
<path d="M81.9919 606.396L20.323 570.779V499.55L81.9919 463.933L143.661 499.55V570.779L81.9919 606.396ZM23.0078 569.233L81.9919 603.299L140.98 569.233V501.096L81.9919 467.03L23.0078 501.096V569.233Z" fill="#00617C"/>
<path d="M141.647 499.176L81.4022 533.972L82.7433 536.292L142.988 501.496L141.647 499.176Z" fill="#00617C"/>
<path d="M22.3373 499.168L20.9962 501.488L81.3624 536.355L82.7035 534.035L22.3373 499.168Z" fill="#00617C"/>
<path d="M-38.6611 606.396L-100.33 570.779V499.55L-38.6611 463.933L23.0078 499.55V570.779L-38.6611 606.396ZM-97.6494 569.233L-38.6654 603.299L20.323 569.233V501.096L-38.6654 467.03L-97.6494 501.096V569.233Z" fill="#00617C"/>
<path d="M20.986 499.172L-39.2584 533.969L-37.9174 536.289L22.3271 501.492L20.986 499.172Z" fill="#00617C"/>
<path d="M1409.18 606.396L1347.51 570.779V499.55L1409.18 463.933L1470.85 499.55V570.779L1409.18 606.396ZM1350.2 569.233L1409.18 603.299L1468.17 569.233V501.096L1409.18 467.03L1350.2 501.096V569.233Z" fill="#00617C"/>
<path d="M1468.83 499.137L1408.58 533.934L1409.92 536.254L1470.17 501.457L1468.83 499.137Z" fill="#00617C"/>
<path d="M1349.57 499.192L1348.23 501.512L1408.59 536.379L1409.93 534.059L1349.57 499.192Z" fill="#00617C"/>
<path d="M1288.53 606.396L1226.86 570.779V499.55L1288.53 463.933L1350.2 499.55V570.779L1288.53 606.396ZM1229.54 569.233L1288.53 603.299L1347.51 569.233V501.096L1288.53 467.03L1229.54 501.096V569.233Z" fill="#00617C"/>
<path d="M1348.23 499.261L1287.97 534.036L1289.31 536.357L1349.57 501.581L1348.23 499.261Z" fill="#00617C"/>
<path d="M1228.91 499.187L1227.57 501.507L1287.93 536.374L1289.27 534.054L1228.91 499.187Z" fill="#00617C"/>
<path d="M1167.88 606.396L1106.21 570.779V499.55L1167.88 463.933L1229.55 499.55V570.779L1167.88 606.396ZM1108.89 569.233L1167.88 603.299L1226.87 569.233V501.096L1167.88 467.03L1108.89 501.096V569.233Z" fill="#00617C"/>
<path d="M1227.55 499.205L1167.3 533.991L1168.64 536.311L1228.89 501.526L1227.55 499.205Z" fill="#00617C"/>
<path d="M1108.26 499.187L1106.92 501.507L1167.28 536.374L1168.62 534.054L1108.26 499.187Z" fill="#00617C"/>
<path d="M1047.22 606.396L985.555 570.779V499.55L1047.22 463.933L1108.89 499.55V570.779L1047.22 606.396ZM988.235 569.233L1047.22 603.299L1106.21 569.233V501.096L1047.22 467.03L988.235 501.096V569.233Z" fill="#00617C"/>
<path d="M1106.89 499.203L1046.64 533.989L1047.98 536.309L1108.23 501.523L1106.89 499.203Z" fill="#00617C"/>
<path d="M987.594 499.187L986.253 501.507L1046.62 536.373L1047.96 534.053L987.594 499.187Z" fill="#00617C"/>
<path d="M926.567 606.396L864.898 570.779V499.55L926.567 463.933L988.236 499.55V570.779L926.567 606.396ZM867.578 569.233L926.567 603.299L985.551 569.233V501.096L926.567 467.03L867.578 501.096V569.233Z" fill="#00617C"/>
<path d="M986.216 499.145L925.971 533.941L927.313 536.261L987.557 501.465L986.216 499.145Z" fill="#00617C"/>
<path d="M866.94 499.187L865.599 501.507L925.965 536.373L927.306 534.053L866.94 499.187Z" fill="#00617C"/>
<path d="M805.914 606.396L744.245 570.779V499.55L805.914 463.933L867.583 499.55V570.779L805.914 606.396ZM746.93 569.233L805.914 603.299L864.902 569.233V501.096L805.914 467.03L746.93 501.096V569.233Z" fill="#00617C"/>
<path d="M865.567 499.16L805.323 533.956L806.664 536.276L866.908 501.48L865.567 499.16Z" fill="#00617C"/>
<path d="M746.28 499.182L744.939 501.502L805.305 536.369L806.646 534.049L746.28 499.182Z" fill="#00617C"/>
<path d="M504.282 501.871L442.613 466.255V395.026L504.282 359.409L565.95 395.026V466.255L504.282 501.871ZM445.293 464.708L504.282 498.774L563.27 464.708V396.572L504.282 362.506L445.293 396.572V464.708Z" fill="#00617C"/>
<path d="M563.932 394.641L503.688 429.438L505.029 431.758L565.273 396.961L563.932 394.641Z" fill="#00617C"/>
<path d="M444.64 394.646L443.299 396.966L503.665 431.832L505.006 429.512L444.64 394.646Z" fill="#00617C"/>
<path d="M505.619 430.084H502.939V500.325H505.619V430.084Z" fill="#00617C"/>
<path d="M383.624 501.871L321.956 466.255V395.026L383.624 359.409L445.293 395.026V466.255L383.624 501.871ZM324.636 464.708L383.624 498.774L442.609 464.708V396.572L383.624 362.506L324.636 396.572V464.708Z" fill="#00617C"/>
<path d="M443.267 394.605L383.022 429.402L384.363 431.722L444.608 396.925L443.267 394.605Z" fill="#00617C"/>
<path d="M323.983 394.649L322.642 396.969L383.008 431.835L384.349 429.515L323.983 394.649Z" fill="#00617C"/>
<path d="M384.967 430.084H382.286V500.325H384.967V430.084Z" fill="#00617C"/>
<path d="M262.971 501.871L201.302 466.255V395.026L262.971 359.409L324.64 395.026V466.255L262.971 501.871ZM203.983 464.708L262.971 498.774L321.96 464.708V396.572L262.971 362.506L203.983 396.572V464.708Z" fill="#00617C"/>
<path d="M322.635 394.66L262.391 429.456L263.732 431.776L323.976 396.98L322.635 394.66Z" fill="#00617C"/>
<path d="M203.323 394.645L201.982 396.965L262.348 431.831L263.689 429.511L203.323 394.645Z" fill="#00617C"/>
<path d="M264.314 430.084H261.633V500.325H264.314V430.084Z" fill="#00617C"/>
<path d="M142.318 501.871L80.6494 466.255V395.026L142.318 359.409L203.987 395.026V466.255L142.318 501.871ZM83.3299 464.708L142.318 498.774L201.307 464.708V396.572L142.318 362.506L83.3299 396.572V464.708Z" fill="#00617C"/>
<path d="M201.973 394.64L141.729 429.437L143.07 431.757L203.314 396.96L201.973 394.64Z" fill="#00617C"/>
<path d="M82.6675 394.644L81.3264 396.964L141.693 431.831L143.034 429.511L82.6675 394.644Z" fill="#00617C"/>
<path d="M143.656 430.084H140.976V500.325H143.656V430.084Z" fill="#00617C"/>
<path d="M21.6653 501.871L-40.0035 466.255V395.026L21.6653 359.409L83.3342 395.026V466.255L21.6653 501.871ZM-37.323 464.708L21.6653 498.774L80.6494 464.708V396.572L21.6653 362.506L-37.323 396.572V464.708Z" fill="#00617C"/>
<path d="M81.3207 394.639L21.0763 429.435L22.4174 431.755L82.6618 396.959L81.3207 394.639Z" fill="#00617C"/>
<path d="M-37.9879 394.64L-39.329 396.96L21.0372 431.826L22.3783 429.506L-37.9879 394.64Z" fill="#00617C"/>
<path d="M23.0035 430.084H20.323V500.325H23.0035V430.084Z" fill="#00617C"/>
<path d="M1348.86 501.871L1287.19 466.255V395.026L1348.86 359.409L1410.53 395.026V466.255L1348.86 501.871ZM1289.87 464.708L1348.86 498.774L1407.84 464.708V396.572L1348.86 362.506L1289.87 396.572V464.708Z" fill="#00617C"/>
<path d="M1408.54 394.697L1348.29 429.483L1349.63 431.803L1409.88 397.017L1408.54 394.697Z" fill="#00617C"/>
<path d="M1289.23 394.656L1287.89 396.976L1348.25 431.842L1349.6 429.522L1289.23 394.656Z" fill="#00617C"/>
<path d="M1350.19 430.084H1347.51V500.325H1350.19V430.084Z" fill="#00617C"/>
<path d="M1469.51 501.871L1407.84 466.255V395.026L1469.51 359.409L1531.18 395.026V466.255L1469.51 501.871ZM1410.52 464.708L1469.51 498.774L1528.5 464.708V396.572L1469.51 362.506L1410.52 396.572V464.708Z" fill="#00617C"/>
<path d="M1409.89 394.664L1408.55 396.984L1468.92 431.851L1470.26 429.531L1409.89 394.664Z" fill="#00617C"/>
<path d="M1228.2 501.871L1166.53 466.255V395.026L1228.2 359.409L1289.87 395.026V466.255L1228.2 501.871ZM1169.21 464.708L1228.2 498.774L1287.19 464.708V396.572L1228.2 362.506L1169.21 396.572V464.708Z" fill="#00617C"/>
<path d="M1287.89 394.689L1227.64 429.475L1228.98 431.795L1289.23 397.009L1287.89 394.689Z" fill="#00617C"/>
<path d="M1168.58 394.66L1167.24 396.98L1227.61 431.846L1228.95 429.527L1168.58 394.66Z" fill="#00617C"/>
<path d="M1229.54 430.084H1226.86V500.325H1229.54V430.084Z" fill="#00617C"/>
<path d="M1107.55 501.871L1045.88 466.255V395.026L1107.55 359.409L1169.22 395.026V466.255L1107.55 501.871ZM1048.56 464.708L1107.55 498.774L1166.54 464.708V396.572L1107.55 362.506L1048.56 396.572V464.708Z" fill="#00617C"/>
<path d="M1167.23 394.689L1106.98 429.474L1108.32 431.795L1168.57 397.009L1167.23 394.689Z" fill="#00617C"/>
<path d="M1047.92 394.655L1046.58 396.975L1106.95 431.841L1108.29 429.521L1047.92 394.655Z" fill="#00617C"/>
<path d="M1108.89 430.084H1106.21V500.325H1108.89V430.084Z" fill="#00617C"/>
<path d="M986.893 501.871L925.224 466.255V395.026L986.893 359.409L1048.56 395.026V466.255L986.893 501.871ZM927.905 464.708L986.893 498.774L1045.88 464.708V396.572L986.893 362.506L927.905 396.572V464.708Z" fill="#00617C"/>
<path d="M1046.55 394.643L986.307 429.439L987.648 431.759L1047.89 396.963L1046.55 394.643Z" fill="#00617C"/>
<path d="M927.265 394.659L925.924 396.979L986.29 431.845L987.631 429.526L927.265 394.659Z" fill="#00617C"/>
<path d="M988.235 430.084H985.555V500.325H988.235V430.084Z" fill="#00617C"/>
<path d="M866.24 501.871L804.571 466.255V395.026L866.24 359.409L927.909 395.026V466.255L866.24 501.871ZM807.256 464.708L866.24 498.774L925.224 464.708V396.572L866.24 362.506L807.256 396.572V464.708Z" fill="#00617C"/>
<path d="M925.916 394.678L865.666 429.463L867.007 431.784L927.257 396.998L925.916 394.678Z" fill="#00617C"/>
<path d="M806.605 394.654L805.264 396.974L865.631 431.841L866.972 429.521L806.605 394.654Z" fill="#00617C"/>
<path d="M867.583 430.084H864.902V500.325H867.583V430.084Z" fill="#00617C"/>
<path d="M745.587 501.871L683.919 466.255V395.026L745.587 359.409L807.256 395.026V466.255L745.587 501.871ZM686.603 464.708L745.587 498.774L804.576 464.708V396.572L745.587 362.506L686.603 396.572V464.708Z" fill="#00617C"/>
<path d="M805.267 394.686L745.023 429.483L746.364 431.803L806.608 397.006L805.267 394.686Z" fill="#00617C"/>
<path d="M685.951 394.65L684.61 396.97L744.976 431.836L746.317 429.516L685.951 394.65Z" fill="#00617C"/>
<path d="M746.926 430.084H744.245V500.325H746.926V430.084Z" fill="#00617C"/>
</g>
<path d="M624.775 84.564L563.106 48.9473V-22.2818L624.775 -57.8984L686.444 -22.2818V48.9473L624.775 84.564ZM565.791 47.401L624.775 81.4671L683.763 47.401V-20.7354L624.775 -54.8015L565.791 -20.7354V47.401Z" fill="#00617C"/>
<path d="M684.432 -22.6487L624.182 12.1372L625.522 14.4575L685.773 -20.3284L684.432 -22.6487Z" fill="#00617C"/>
<path d="M565.133 -22.6442L563.792 -20.3242L624.159 14.5425L625.5 12.2225L565.133 -22.6442Z" fill="#00617C"/>
<path d="M626.113 12.7773H623.433V83.0181H626.113V12.7773Z" fill="#00617C"/>
<path d="M564.449 189.088L502.78 153.471V82.2419L564.449 46.6252L626.118 82.2419V153.471L564.449 189.088ZM505.465 151.925L564.449 185.991L623.437 151.925V83.7882L564.449 49.7222L505.465 83.7882V151.925Z" fill="#00617C"/>
<path d="M624.103 81.8489L563.859 116.645L565.2 118.965L625.445 84.1689L624.103 81.8489Z" fill="#00617C"/>
<path d="M504.803 81.8873L503.462 84.2073L563.829 119.074L565.17 116.754L504.803 81.8873Z" fill="#00617C"/>
<path d="M565.787 117.301H563.107V187.541H565.787V117.301Z" fill="#00617C"/>
<path d="M685.102 189.088L623.433 153.471V82.2419L685.102 46.6252L746.771 82.2419V153.471L685.102 189.088ZM626.118 151.925L685.102 185.991L744.086 151.925V83.7882L685.102 49.7222L626.118 83.7882V151.925Z" fill="#00617C"/>
<path d="M744.752 81.919L684.508 116.715L685.849 119.035L746.093 84.239L744.752 81.919Z" fill="#00617C"/>
<path d="M625.459 81.8832L624.117 84.2031L684.484 119.07L685.825 116.75L625.459 81.8832Z" fill="#00617C"/>
<path d="M686.44 117.301H683.759V187.541H686.44V117.301Z" fill="#00617C"/>
<path d="M443.792 189.088L382.123 153.471V82.2419L443.792 46.6252L505.461 82.2419V153.471L443.792 189.088ZM384.808 151.925L443.792 185.991L502.78 151.925V83.7882L443.792 49.7222L384.808 83.7882V151.925Z" fill="#00617C"/>
<path d="M503.443 81.8853L443.193 116.671L444.534 118.991L504.784 84.2056L503.443 81.8853Z" fill="#00617C"/>
<path d="M384.142 81.8824L382.801 84.2024L443.167 119.069L444.508 116.749L384.142 81.8824Z" fill="#00617C"/>
<path d="M445.134 117.301H442.454V187.541H445.134V117.301Z" fill="#00617C"/>
<path d="M323.139 189.088L261.47 153.471V82.2419L323.139 46.6252L384.807 82.2419V153.471L323.139 189.088ZM264.15 151.925L323.139 185.991L382.127 151.925V83.7882L323.139 49.7222L264.15 83.7882V151.925Z" fill="#00617C"/>
<path d="M382.794 81.8513L322.55 116.648L323.891 118.968L384.135 84.1714L382.794 81.8513Z" fill="#00617C"/>
<path d="M263.486 81.8824L262.145 84.2024L322.511 119.069L323.852 116.749L263.486 81.8824Z" fill="#00617C"/>
<path d="M324.481 117.301H321.801V187.541H324.481V117.301Z" fill="#00617C"/>
<path d="M202.486 189.088L140.817 153.471V82.2419L202.486 46.6252L264.154 82.2419V153.471L202.486 189.088ZM143.501 151.925L202.486 185.991L261.47 151.925V83.7882L202.486 49.7222L143.501 83.7882V151.925Z" fill="#00617C"/>
<path d="M262.12 81.8923L201.875 116.689L203.216 119.009L263.461 84.2124L262.12 81.8923Z" fill="#00617C"/>
<path d="M142.826 81.8782L141.485 84.1982L201.852 119.065L203.193 116.745L142.826 81.8782Z" fill="#00617C"/>
<path d="M203.828 117.301H201.148V187.541H203.828V117.301Z" fill="#00617C"/>
<path d="M81.8327 189.088L20.1638 153.471V82.2419L81.8327 46.6252L143.502 82.2419V153.471L81.8327 189.088ZM22.8486 151.925L81.8327 185.991L140.821 151.925V83.7882L81.8327 49.7222L22.8486 83.7882V151.925Z" fill="#00617C"/>
<path d="M141.467 81.8782L81.2227 116.675L82.5637 118.995L142.808 84.1982L141.467 81.8782Z" fill="#00617C"/>
<path d="M22.1713 81.8773L20.8302 84.1973L81.1964 119.064L82.5374 116.744L22.1713 81.8773Z" fill="#00617C"/>
<path d="M83.171 117.301H80.4905V187.541H83.171V117.301Z" fill="#00617C"/>
<path d="M-38.8203 189.088L-100.489 153.471V82.2419L-38.8203 46.6252L22.8486 82.2419V153.471L-38.8203 189.088ZM-97.8086 151.925L-38.8245 185.991L20.1638 151.925V83.7882L-38.8245 49.7222L-97.8086 83.7882V151.925Z" fill="#00617C"/>
<path d="M20.8063 81.874L-39.4381 116.67L-38.097 118.99L22.1474 84.1941L20.8063 81.874Z" fill="#00617C"/>
<path d="M1409.02 189.088L1347.36 153.471V82.2419L1409.02 46.6252L1470.69 82.2419V153.471L1409.02 189.088ZM1350.04 151.925L1409.02 185.991L1468.01 151.925V83.7882L1409.02 49.7222L1350.04 83.7882V151.925Z" fill="#00617C"/>
<path d="M1468.67 81.8223L1408.43 116.619L1409.77 118.939L1470.01 84.1423L1468.67 81.8223Z" fill="#00617C"/>
<path d="M1349.41 81.9017L1348.06 84.2217L1408.43 119.088L1409.77 116.768L1349.41 81.9017Z" fill="#00617C"/>
<path d="M1410.37 117.301H1407.69V187.541H1410.37V117.301Z" fill="#00617C"/>
<path d="M1288.37 189.088L1226.7 153.471V82.2419L1288.37 46.6252L1350.04 82.2419V153.471L1288.37 189.088ZM1229.38 151.925L1288.37 185.991L1347.35 151.925V83.7882L1288.37 49.7222L1229.38 83.7882V151.925Z" fill="#00617C"/>
<path d="M1348.05 81.9676L1287.79 116.743L1289.13 119.063L1349.39 84.2881L1348.05 81.9676Z" fill="#00617C"/>
<path d="M1228.75 81.8975L1227.4 84.2175L1287.77 119.084L1289.11 116.764L1228.75 81.8975Z" fill="#00617C"/>
<path d="M1289.71 117.301H1287.03V187.541H1289.71V117.301Z" fill="#00617C"/>
<path d="M1167.72 189.088L1106.05 153.471V82.2419L1167.72 46.6252L1229.39 82.2419V153.471L1167.72 189.088ZM1108.73 151.925L1167.72 185.991L1226.71 151.925V83.7882L1167.72 49.7222L1108.73 83.7882V151.925Z" fill="#00617C"/>
<path d="M1227.38 81.9063L1167.12 116.692L1168.47 119.012L1228.72 84.2265L1227.38 81.9063Z" fill="#00617C"/>
<path d="M1108.09 81.8975L1106.75 84.2175L1167.12 119.084L1168.46 116.764L1108.09 81.8975Z" fill="#00617C"/>
<path d="M1169.06 117.301H1166.38V187.541H1169.06V117.301Z" fill="#00617C"/>
<path d="M1047.06 189.088L985.396 153.471V82.2419L1047.06 46.6252L1108.73 82.2419V153.471L1047.06 189.088ZM988.076 151.925L1047.06 185.991L1106.05 151.925V83.7882L1047.06 49.7222L988.076 83.7882V151.925Z" fill="#00617C"/>
<path d="M1106.72 81.9029L1046.47 116.689L1047.81 119.009L1108.06 84.2231L1106.72 81.9029Z" fill="#00617C"/>
<path d="M987.433 81.8963L986.092 84.2163L1046.46 119.083L1047.8 116.763L987.433 81.8963Z" fill="#00617C"/>
<path d="M1048.4 117.301H1045.72V187.541H1048.4V117.301Z" fill="#00617C"/>
<path d="M926.407 189.088L864.739 153.471V82.2419L926.407 46.6252L988.076 82.2419V153.471L926.407 189.088ZM867.419 151.925L926.407 185.991L985.392 151.925V83.7882L926.407 49.7222L867.419 83.7882V151.925Z" fill="#00617C"/>
<path d="M986.062 81.834L925.817 116.63L927.158 118.95L987.403 84.154L986.062 81.834Z" fill="#00617C"/>
<path d="M866.773 81.8917L865.432 84.2117L925.798 119.078L927.139 116.758L866.773 81.8917Z" fill="#00617C"/>
<path d="M927.75 117.301H925.069V187.541H927.75V117.301Z" fill="#00617C"/>
<path d="M805.754 189.088L744.086 153.471V82.2419L805.754 46.6252L867.423 82.2419V153.471L805.754 189.088ZM746.77 151.925L805.754 185.991L864.743 151.925V83.7882L805.754 49.7222L746.77 83.7882V151.925Z" fill="#00617C"/>
<path d="M865.409 81.8489L805.164 116.645L806.505 118.965L866.75 84.1689L865.409 81.8489Z" fill="#00617C"/>
<path d="M746.118 81.8917L744.777 84.2117L805.143 119.078L806.484 116.758L746.118 81.8917Z" fill="#00617C"/>
<path d="M807.097 117.301H804.416V187.541H807.097V117.301Z" fill="#00617C"/>
<path d="M504.122 84.564L442.453 48.9473V-22.2818L504.122 -57.8984L565.791 -22.2818V48.9473L504.122 84.564ZM445.134 47.401L504.122 81.4671L563.111 47.401V-20.7354L504.122 -54.8015L445.134 -20.7354V47.401Z" fill="#00617C"/>
<path d="M563.774 -22.6726L503.529 12.1238L504.87 14.4438L565.115 -20.3526L563.774 -22.6726Z" fill="#00617C"/>
<path d="M444.478 -22.6442L443.137 -20.3242L503.503 14.5425L504.844 12.2225L444.478 -22.6442Z" fill="#00617C"/>
<path d="M505.46 12.7773H502.78V83.0181H505.46V12.7773Z" fill="#00617C"/>
<path d="M383.465 84.564L321.796 48.9473V-22.2818L383.465 -57.8984L445.134 -22.2818V48.9473L383.465 84.564ZM324.477 47.401L383.465 81.4671L442.449 47.401V-20.7354L383.465 -54.8015L324.477 -20.7354V47.401Z" fill="#00617C"/>
<path d="M443.133 -22.7165L382.889 12.0798L384.23 14.3999L444.474 -20.3965L443.133 -22.7165Z" fill="#00617C"/>
<path d="M323.816 -22.645L322.475 -20.325L382.838 14.5396L384.179 12.2196L323.816 -22.645Z" fill="#00617C"/>
<path d="M384.807 12.7773H382.127V83.0181H384.807V12.7773Z" fill="#00617C"/>
<path d="M262.812 84.564L201.143 48.9473V-22.2818L262.812 -57.8984L324.481 -22.2818V48.9473L262.812 84.564ZM203.824 47.401L262.812 81.4671L321.801 47.401V-20.7354L262.812 -54.8015L203.824 -20.7354V47.401Z" fill="#00617C"/>
<path d="M322.455 -22.6416L262.211 12.1548L263.552 14.4748L323.796 -20.3216L322.455 -22.6416Z" fill="#00617C"/>
<path d="M203.161 -22.6449L201.819 -20.325L262.186 14.5417L263.527 12.2218L203.161 -22.6449Z" fill="#00617C"/>
<path d="M264.155 12.7773H261.474V83.0181H264.155V12.7773Z" fill="#00617C"/>
<path d="M142.159 84.564L80.4902 48.9473V-22.2818L142.159 -57.8984L203.828 -22.2818V48.9473L142.159 84.564ZM83.1708 47.401L142.159 81.4671L201.147 47.401V-20.7354L142.159 -54.8015L83.1708 -20.7354V47.401Z" fill="#00617C"/>
<path d="M201.815 -22.6733L141.571 12.123L142.912 14.4431L203.156 -20.3533L201.815 -22.6733Z" fill="#00617C"/>
<path d="M82.5012 -22.6491L81.1602 -20.3291L141.526 14.5376L142.867 12.2176L82.5012 -22.6491Z" fill="#00617C"/>
<path d="M143.497 12.7773H140.817V83.0181H143.497V12.7773Z" fill="#00617C"/>
<path d="M21.5063 84.564L-40.1626 48.9473V-22.2818L21.5063 -57.8984L83.1751 -22.2818V48.9473L21.5063 84.564ZM-37.4821 47.401L21.5063 81.4671L80.4904 47.401V-20.7354L21.5063 -54.8015L-37.4821 -20.7354V47.401Z" fill="#00617C"/>
<path d="M81.1624 -22.6716L20.918 12.1248L22.259 14.4448L82.5035 -20.3516L81.1624 -22.6716Z" fill="#00617C"/>
<path d="M-38.1538 -22.6542L-39.4949 -20.3342L20.8713 14.5325L22.2124 12.2125L-38.1538 -22.6542Z" fill="#00617C"/>
<path d="M22.8445 12.7773H20.1639V83.0181H22.8445V12.7773Z" fill="#00617C"/>
<path d="M1348.7 84.564L1287.03 48.9473V-22.2818L1348.7 -57.8984L1410.37 -22.2818V48.9473L1348.7 84.564ZM1289.71 47.401L1348.7 81.4671L1407.69 47.401V-20.7354L1348.7 -54.8015L1289.71 -20.7354V47.401Z" fill="#00617C"/>
<path d="M1408.36 -22.6152L1348.11 12.1707L1349.45 14.4909L1409.71 -20.295L1408.36 -22.6152Z" fill="#00617C"/>
<path d="M1289.08 -22.6342L1287.73 -20.3142L1348.1 14.5504L1349.44 12.2303L1289.08 -22.6342Z" fill="#00617C"/>
<path d="M1350.04 12.7773H1347.35V83.0181H1350.04V12.7773Z" fill="#00617C"/>
<path d="M1469.35 84.564L1407.68 48.9473V-22.2818L1469.35 -57.8984L1531.02 -22.2818V48.9473L1469.35 84.564ZM1410.36 47.401L1469.35 81.4671L1528.34 47.401V-20.7354L1469.35 -54.8015L1410.36 -20.7354V47.401Z" fill="#00617C"/>
<path d="M1409.74 -22.6258L1408.39 -20.3059L1468.76 14.5608L1470.1 12.2409L1409.74 -22.6258Z" fill="#00617C"/>
<path d="M1228.04 84.564L1166.38 48.9473V-22.2818L1228.04 -57.8984L1289.71 -22.2818V48.9473L1228.04 84.564ZM1169.06 47.401L1228.04 81.4671L1287.03 47.401V-20.7354L1228.04 -54.8015L1169.06 -20.7354V47.401Z" fill="#00617C"/>
<path d="M1287.71 -22.6179L1227.46 12.168L1228.8 14.4882L1289.05 -20.2976L1287.71 -22.6179Z" fill="#00617C"/>
<path d="M1168.42 -22.6297L1167.08 -20.3098L1227.45 14.5569L1228.79 12.237L1168.42 -22.6297Z" fill="#00617C"/>
<path d="M1229.38 12.7773H1226.7V83.0181H1229.38V12.7773Z" fill="#00617C"/>
<path d="M1107.39 84.564L1045.72 48.9473V-22.2818L1107.39 -57.8984L1169.06 -22.2818V48.9473L1107.39 84.564ZM1048.4 47.401L1107.39 81.4671L1166.38 47.401V-20.7354L1107.39 -54.8015L1048.4 -20.7354V47.401Z" fill="#00617C"/>
<path d="M1167.05 -22.6235L1106.8 12.1624L1108.14 14.4826L1168.39 -20.3033L1167.05 -22.6235Z" fill="#00617C"/>
<path d="M1047.77 -22.6342L1046.42 -20.3142L1106.79 14.5504L1108.13 12.2303L1047.77 -22.6342Z" fill="#00617C"/>
<path d="M1108.73 12.7773H1106.05V83.0181H1108.73V12.7773Z" fill="#00617C"/>
<path d="M986.734 84.564L925.065 48.9473V-22.2818L986.734 -57.8984L1048.4 -22.2818V48.9473L986.734 84.564ZM927.746 47.401L986.734 81.4671L1045.72 47.401V-20.7354L986.734 -54.8015L927.746 -20.7354V47.401Z" fill="#00617C"/>
<path d="M1046.39 -22.675L986.144 12.1213L987.485 14.4414L1047.73 -20.355L1046.39 -22.675Z" fill="#00617C"/>
<path d="M927.108 -22.6305L925.767 -20.3105L986.133 14.5562L987.474 12.2362L927.108 -22.6305Z" fill="#00617C"/>
<path d="M988.077 12.7773H985.396V83.0181H988.077V12.7773Z" fill="#00617C"/>
<path d="M866.081 84.564L804.412 48.9473V-22.2818L866.081 -57.8984L927.75 -22.2818V48.9473L866.081 84.564ZM807.097 47.401L866.081 81.4671L925.065 47.401V-20.7354L866.081 -54.8015L807.097 -20.7354V47.401Z" fill="#00617C"/>
<path d="M925.742 -22.6296L865.491 12.1562L866.832 14.4765L927.082 -20.3093L925.742 -22.6296Z" fill="#00617C"/>
<path d="M806.448 -22.6398L805.107 -20.3198L865.47 14.5447L866.811 12.2247L806.448 -22.6398Z" fill="#00617C"/>
<path d="M867.424 12.7773H864.743V83.0181H867.424V12.7773Z" fill="#00617C"/>
<path d="M745.428 84.564L683.759 48.9473V-22.2818L745.428 -57.8984L807.097 -22.2818V48.9473L745.428 84.564ZM686.444 47.401L745.428 81.4671L804.416 47.401V-20.7354L745.428 -54.8015L686.444 -20.7354V47.401Z" fill="#00617C"/>
<path d="M805.087 -22.615L744.843 12.1814L746.184 14.5014L806.428 -20.295L805.087 -22.615Z" fill="#00617C"/>
<path d="M685.789 -22.6398L684.448 -20.3198L744.81 14.5447L746.151 12.2247L685.789 -22.6398Z" fill="#00617C"/>
<path d="M746.766 12.7773H744.086V83.0181H746.766V12.7773Z" fill="#00617C"/>
<path d="M624.775 293.612L563.106 257.995V186.766L624.775 151.149L686.444 186.766V257.995L624.775 293.612ZM565.791 256.449L624.775 290.515L683.763 256.449V188.312L624.775 154.246L565.791 188.312V256.449Z" fill="#00617C"/>
<path d="M684.443 186.331L624.192 221.117L625.533 223.437L685.783 188.652L684.443 186.331Z" fill="#00617C"/>
<path d="M565.128 186.407L563.787 188.727L624.153 223.594L625.494 221.273L565.128 186.407Z" fill="#00617C"/>
<path d="M626.113 221.825H623.433V292.066H626.113V221.825Z" fill="#00617C"/>
<path d="M564.449 398.14L502.78 362.524V291.294L564.449 255.678L626.118 291.294V362.524L564.449 398.14ZM505.465 360.977L564.449 395.043L623.437 360.977V292.841L564.449 258.775L505.465 292.841V360.977Z" fill="#00617C"/>
<path d="M624.135 290.823L563.89 325.62L565.231 327.94L625.476 293.143L624.135 290.823Z" fill="#00617C"/>
<path d="M504.798 290.943L503.457 293.263L563.823 328.13L565.164 325.81L504.798 290.943Z" fill="#00617C"/>
<path d="M565.787 326.349H563.107V396.59H565.787V326.349Z" fill="#00617C"/>
<path d="M685.102 398.14L623.433 362.524V291.294L685.102 255.678L746.771 291.294V362.524L685.102 398.14ZM626.118 360.977L685.102 395.043L744.086 360.977V292.841L685.102 258.775L626.118 292.841V360.977Z" fill="#00617C"/>
<path d="M744.762 290.889L684.518 325.686L685.859 328.006L746.103 293.209L744.762 290.889Z" fill="#00617C"/>
<path d="M625.457 290.942L624.116 293.262L684.478 328.126L685.819 325.806L625.457 290.942Z" fill="#00617C"/>
<path d="M686.44 326.349H683.76V396.59H686.44V326.349Z" fill="#00617C"/>
<path d="M443.792 398.14L382.123 362.524V291.294L443.792 255.678L505.461 291.294V362.524L443.792 398.14ZM384.808 360.977L443.792 395.043L502.78 360.977V292.841L443.792 258.775L384.808 292.841V360.977Z" fill="#00617C"/>
<path d="M503.468 290.87L443.218 325.656L444.559 327.976L504.809 293.19L503.468 290.87Z" fill="#00617C"/>
<path d="M384.136 290.939L382.795 293.259L443.161 328.125L444.503 325.805L384.136 290.939Z" fill="#00617C"/>
<path d="M445.134 326.349H442.454V396.59H445.134V326.349Z" fill="#00617C"/>
<path d="M323.139 398.14L261.47 362.524V291.294L323.139 255.678L384.807 291.294V362.524L323.139 398.14ZM264.15 360.977L323.139 395.043L382.127 360.977V292.841L323.139 258.775L264.15 292.841V360.977Z" fill="#00617C"/>
<path d="M382.834 290.839L322.589 325.635L323.931 327.956L384.175 293.159L382.834 290.839Z" fill="#00617C"/>
<path d="M263.485 290.941L262.144 293.261L322.506 328.126L323.847 325.806L263.485 290.941Z" fill="#00617C"/>
<path d="M324.481 326.349H321.801V396.59H324.481V326.349Z" fill="#00617C"/>
<path d="M202.486 398.14L140.817 362.524V291.294L202.486 255.678L264.154 291.294V362.524L202.486 398.14ZM143.501 360.977L202.486 395.043L261.47 360.977V292.841L202.486 258.775L143.501 292.841V360.977Z" fill="#00617C"/>
<path d="M262.151 290.896L201.907 325.693L203.248 328.013L263.492 293.217L262.151 290.896Z" fill="#00617C"/>
<path d="M142.825 290.936L141.484 293.256L201.846 328.12L203.187 325.8L142.825 290.936Z" fill="#00617C"/>
<path d="M203.828 326.349H201.148V396.59H203.828V326.349Z" fill="#00617C"/>
<path d="M81.8327 398.14L20.1638 362.524V291.294L81.8327 255.678L143.502 291.294V362.524L81.8327 398.14ZM22.8486 360.977L81.8327 395.043L140.821 360.977V292.841L81.8327 258.775L22.8486 292.841V360.977Z" fill="#00617C"/>
<path d="M141.507 290.891L81.2623 325.687L82.6034 328.007L142.848 293.211L141.507 290.891Z" fill="#00617C"/>
<path d="M22.166 290.934L20.825 293.254L81.1911 328.121L82.5322 325.801L22.166 290.934Z" fill="#00617C"/>
<path d="M83.171 326.349H80.4905V396.59H83.171V326.349Z" fill="#00617C"/>
<path d="M-38.8203 398.14L-100.489 362.524V291.294L-38.8203 255.678L22.8486 291.294V362.524L-38.8203 398.14ZM-97.8086 360.977L-38.8245 395.043L20.1638 360.977V292.841L-38.8245 258.775L-97.8086 292.841V360.977Z" fill="#00617C"/>
<path d="M20.8505 290.895L-39.3939 325.691L-38.0528 328.011L22.1916 293.215L20.8505 290.895Z" fill="#00617C"/>
<path d="M1409.02 398.14L1347.35 362.524V291.294L1409.02 255.678L1470.69 291.294V362.524L1409.02 398.14ZM1350.04 360.977L1409.02 395.043L1468.01 360.977V292.841L1409.02 258.775L1350.04 292.841V360.977Z" fill="#00617C"/>
<path d="M1468.69 291.043L1408.44 325.829L1409.78 328.149L1470.03 293.363L1468.69 291.043Z" fill="#00617C"/>
<path d="M1349.4 290.96L1348.06 293.28L1408.43 328.144L1409.77 325.824L1349.4 290.96Z" fill="#00617C"/>
<path d="M1410.37 326.349H1407.69V396.59H1410.37V326.349Z" fill="#00617C"/>
<path d="M1288.37 398.14L1226.7 362.524V291.294L1288.37 255.678L1350.04 291.294V362.524L1288.37 398.14ZM1229.38 360.977L1288.37 395.043L1347.35 360.977V292.841L1288.37 258.775L1229.38 292.841V360.977Z" fill="#00617C"/>
<path d="M1348.03 290.898L1287.78 325.673L1289.12 327.993L1349.37 293.218L1348.03 290.898Z" fill="#00617C"/>
<path d="M1228.74 290.951L1227.4 293.271L1287.77 328.135L1289.11 325.815L1228.74 290.951Z" fill="#00617C"/>
<path d="M1289.71 326.349H1287.03V396.59H1289.71V326.349Z" fill="#00617C"/>
<path d="M1167.72 398.14L1106.05 362.524V291.294L1167.72 255.678L1229.39 291.294V362.524L1167.72 398.14ZM1108.73 360.977L1167.72 395.043L1226.71 360.977V292.841L1167.72 258.775L1108.73 292.841V360.977Z" fill="#00617C"/>
<path d="M1227.37 290.838L1167.12 325.624L1168.46 327.945L1228.72 293.159L1227.37 290.838Z" fill="#00617C"/>
<path d="M1108.09 290.957L1106.75 293.277L1167.11 328.144L1168.46 325.824L1108.09 290.957Z" fill="#00617C"/>
<path d="M1169.06 326.349H1166.38V396.59H1169.06V326.349Z" fill="#00617C"/>
<path d="M1047.06 398.14L985.396 362.524V291.294L1047.06 255.678L1108.73 291.294V362.524L1047.06 398.14ZM988.076 360.977L1047.06 395.043L1106.05 360.977V292.841L1047.06 258.775L988.076 292.841V360.977Z" fill="#00617C"/>
<path d="M1106.72 290.845L1046.47 325.63L1047.81 327.951L1108.07 293.165L1106.72 290.845Z" fill="#00617C"/>
<path d="M987.431 290.955L986.09 293.275L1046.45 328.139L1047.79 325.819L987.431 290.955Z" fill="#00617C"/>
<path d="M1048.4 326.349H1045.72V396.59H1048.4V326.349Z" fill="#00617C"/>
<path d="M926.407 398.14L864.739 362.524V291.294L926.407 255.678L988.076 291.294V362.524L926.407 398.14ZM867.419 360.977L926.407 395.043L985.392 360.977V292.841L926.407 258.775L867.419 292.841V360.977Z" fill="#00617C"/>
<path d="M986.057 291.011L925.806 325.797L927.147 328.117L987.398 293.332L986.057 291.011Z" fill="#00617C"/>
<path d="M866.768 290.948L865.427 293.268L925.793 328.135L927.134 325.815L866.768 290.948Z" fill="#00617C"/>
<path d="M927.75 326.349H925.069V396.59H927.75V326.349Z" fill="#00617C"/>
<path d="M805.754 398.14L744.085 362.524V291.294L805.754 255.678L867.423 291.294V362.524L805.754 398.14ZM746.77 360.977L805.754 395.043L864.743 360.977V292.841L805.754 258.775L746.77 292.841V360.977Z" fill="#00617C"/>
<path d="M865.427 290.806L805.183 325.602L806.524 327.922L866.768 293.126L865.427 290.806Z" fill="#00617C"/>
<path d="M746.116 290.95L744.775 293.27L805.138 328.134L806.479 325.814L746.116 290.95Z" fill="#00617C"/>
<path d="M807.097 326.349H804.416V396.59H807.097V326.349Z" fill="#00617C"/>
<path d="M504.122 293.612L442.453 257.995V186.766L504.122 151.149L565.791 186.766V257.995L504.122 293.612ZM445.134 256.449L504.122 290.515L563.111 256.449V188.312L504.122 154.246L445.134 188.312V256.449Z" fill="#00617C"/>
<path d="M563.794 186.31L503.55 221.106L504.891 223.426L565.135 188.63L563.794 186.31Z" fill="#00617C"/>
<path d="M444.466 186.411L443.125 188.731L503.492 223.597L504.833 221.277L444.466 186.411Z" fill="#00617C"/>
<path d="M505.46 221.825H502.78V292.066H505.46V221.825Z" fill="#00617C"/>
<path d="M383.465 293.612L321.796 257.995V186.766L383.465 151.149L445.134 186.766V257.995L383.465 293.612ZM324.477 256.449L383.465 290.515L442.449 256.449V188.312L383.465 154.246L324.477 188.312V256.449Z" fill="#00617C"/>
<path d="M443.112 186.408L382.861 221.194L384.202 223.514L444.452 188.728L443.112 186.408Z" fill="#00617C"/>
<path d="M323.811 186.406L322.47 188.726L382.833 223.591L384.174 221.271L323.811 186.406Z" fill="#00617C"/>
<path d="M384.807 221.825H382.127V292.066H384.807V221.825Z" fill="#00617C"/>
<path d="M262.812 293.612L201.143 257.995V186.766L262.812 151.149L324.481 186.766V257.995L262.812 293.612ZM203.824 256.449L262.812 290.515L321.801 256.449V188.312L262.812 154.246L203.824 188.312V256.449Z" fill="#00617C"/>
<path d="M322.476 186.366L262.231 221.162L263.572 223.482L323.817 188.686L322.476 186.366Z" fill="#00617C"/>
<path d="M203.156 186.406L201.815 188.726L262.181 223.593L263.522 221.273L203.156 186.406Z" fill="#00617C"/>
<path d="M264.155 221.825H261.474V292.066H264.155V221.825Z" fill="#00617C"/>
<path d="M142.159 293.612L80.4905 257.995V186.766L142.159 151.149L203.828 186.766V257.995L142.159 293.612ZM83.171 256.449L142.159 290.515L201.148 256.449V188.312L142.159 154.246L83.171 188.312V256.449Z" fill="#00617C"/>
<path d="M201.849 186.334L141.604 221.131L142.946 223.451L203.19 188.654L201.849 186.334Z" fill="#00617C"/>
<path d="M82.4965 186.402L81.1554 188.722L141.522 223.589L142.863 221.269L82.4965 186.402Z" fill="#00617C"/>
<path d="M143.498 221.825H140.817V292.066H143.498V221.825Z" fill="#00617C"/>
<path d="M21.5063 293.612L-40.1626 257.995V186.766L21.5063 151.149L83.1751 186.766V257.995L21.5063 293.612ZM-37.4821 256.449L21.5063 290.515L80.4904 256.449V188.312L21.5063 154.246L-37.4821 188.312V256.449Z" fill="#00617C"/>
<path d="M81.2001 186.341L20.9557 221.137L22.2968 223.457L82.5412 188.661L81.2001 186.341Z" fill="#00617C"/>
<path d="M-38.1592 186.398L-39.5002 188.718L20.8659 223.584L22.207 221.264L-38.1592 186.398Z" fill="#00617C"/>
<path d="M22.8445 221.825H20.1639V292.066H22.8445V221.825Z" fill="#00617C"/>
<path d="M1348.7 293.612L1287.03 257.995V186.766L1348.7 151.149L1410.37 186.766V257.995L1348.7 293.612ZM1289.71 256.449L1348.7 290.515L1407.69 256.449V188.312L1348.7 154.246L1289.71 188.312V256.449Z" fill="#00617C"/>
<path d="M1408.35 186.318L1348.1 221.104L1349.44 223.424L1409.69 188.638L1408.35 186.318Z" fill="#00617C"/>
<path d="M1289.07 186.413L1287.73 188.733L1348.09 223.597L1349.43 221.277L1289.07 186.413Z" fill="#00617C"/>
<path d="M1350.04 221.825H1347.35V292.066H1350.04V221.825Z" fill="#00617C"/>
<path d="M1469.35 293.612L1407.68 257.995V186.766L1469.35 151.149L1531.02 186.766V257.995L1469.35 293.612ZM1410.36 256.449L1469.35 290.515L1528.34 256.449V188.312L1469.35 154.246L1410.36 188.312V256.449Z" fill="#00617C"/>
<path d="M1409.73 186.425L1408.38 188.745L1468.75 223.612L1470.09 221.292L1409.73 186.425Z" fill="#00617C"/>
<path d="M1228.04 293.612L1166.38 257.995V186.766L1228.04 151.149L1289.71 186.766V257.995L1228.04 293.612ZM1169.06 256.449L1228.04 290.515L1287.03 256.449V188.312L1228.04 154.246L1169.06 188.312V256.449Z" fill="#00617C"/>
<path d="M1287.7 186.323L1227.45 221.109L1228.79 223.429L1289.04 188.643L1287.7 186.323Z" fill="#00617C"/>
<path d="M1168.42 186.421L1167.07 188.741L1227.44 223.608L1228.78 221.288L1168.42 186.421Z" fill="#00617C"/>
<path d="M1229.38 221.825H1226.7V292.066H1229.38V221.825Z" fill="#00617C"/>
<path d="M1107.39 293.612L1045.72 257.995V186.766L1107.39 151.149L1169.06 186.766V257.995L1107.39 293.612ZM1048.4 256.449L1107.39 290.515L1166.38 256.449V188.312L1107.39 154.246L1048.4 188.312V256.449Z" fill="#00617C"/>
<path d="M1167.04 186.331L1106.79 221.116L1108.14 223.437L1168.39 188.651L1167.04 186.331Z" fill="#00617C"/>
<path d="M1047.76 186.413L1046.41 188.733L1106.78 223.597L1108.12 221.277L1047.76 186.413Z" fill="#00617C"/>
<path d="M1108.73 221.825H1106.05V292.066H1108.73V221.825Z" fill="#00617C"/>
<path d="M986.734 293.612L925.065 257.995V186.766L986.734 151.149L1048.4 186.766V257.995L986.734 293.612ZM927.746 256.449L986.734 290.515L1045.72 256.449V188.312L986.734 154.246L927.746 188.312V256.449Z" fill="#00617C"/>
<path d="M1046.39 186.277L986.148 221.074L987.489 223.394L1047.73 188.597L1046.39 186.277Z" fill="#00617C"/>
<path d="M927.098 186.416L925.757 188.736L986.123 223.603L987.464 221.283L927.098 186.416Z" fill="#00617C"/>
<path d="M988.077 221.825H985.396V292.066H988.077V221.825Z" fill="#00617C"/>
<path d="M866.081 293.612L804.412 257.995V186.766L866.081 151.149L927.75 186.766V257.995L866.081 293.612ZM807.097 256.449L866.081 290.515L925.065 256.449V188.312L866.081 154.246L807.097 188.312V256.449Z" fill="#00617C"/>
<path d="M925.744 186.337L865.493 221.123L866.834 223.443L927.084 188.657L925.744 186.337Z" fill="#00617C"/>
<path d="M806.439 186.412L805.098 188.732L865.46 223.596L866.801 221.276L806.439 186.412Z" fill="#00617C"/>
<path d="M867.424 221.825H864.743V292.066H867.424V221.825Z" fill="#00617C"/>
<path d="M745.428 293.612L683.759 257.995V186.766L745.428 151.149L807.097 186.766V257.995L745.428 293.612ZM686.444 256.449L745.428 290.515L804.416 256.449V188.312L745.428 154.246L686.444 188.312V256.449Z" fill="#00617C"/>
<path d="M805.087 186.359L744.842 221.156L746.183 223.476L806.428 188.679L805.087 186.359Z" fill="#00617C"/>
<path d="M685.784 186.412L684.443 188.732L744.809 223.599L746.15 221.279L685.784 186.412Z" fill="#00617C"/>
<path d="M746.766 221.825H744.086V292.066H746.766V221.825Z" fill="#00617C"/>
</g>
<defs>
<clipPath id="clip0_11_583">
<rect width="1593.51" height="338.62" fill="white" transform="translate(-81.6769 322.38)"/>
</clipPath>
</defs>
</svg>
