<svg width="0" height="0" xmlns="http://www.w3.org/2000/svg"
  xmlns:xlink="http://www.w3.org/1999/xlink" class="hidden">

  <symbol xmlns="http://www.w3.org/2000/svg" viewBox="0 0 86 88" id="popular_man">
    <path
      d="M33.7501 0.333496C22.2812 0.333496 12.9167 9.69791 12.9167 21.1668C12.9167 32.6357 22.2812 42.0002 33.7501 42.0002C45.219 42.0002 54.5834 32.6357 54.5834 21.1668C54.5834 9.69791 45.219 0.333496 33.7501 0.333496ZM62.9167 42.0002C50.2605 42.0002 40.0001 52.2606 40.0001 64.9168C40.0001 77.5731 50.2605 87.8335 62.9167 87.8335C75.573 87.8335 85.8334 77.5731 85.8334 64.9168C85.8334 52.2606 75.573 42.0002 62.9167 42.0002ZM9.79175 50.3335C4.62508 50.3335 0.416748 54.5418 0.416748 59.7085V62.2069C0.416748 74.2485 15.0626 83.6668 33.7501 83.6668C36.8542 83.6668 39.8523 83.3978 42.6856 82.8978C38.4148 78.127 35.8334 71.8127 35.8334 64.9168C35.8334 59.5418 37.3975 54.5418 40.1059 50.3335H9.79175ZM62.9167 50.3335C63.9167 50.3335 64.8094 50.9705 65.1344 51.9163L67.4537 58.6668H75.1563C76.1626 58.6668 77.0572 59.3098 77.378 60.2619C77.6988 61.216 77.3744 62.2699 76.5723 62.8783L70.3346 67.6105L72.4464 74.3732C72.7505 75.344 72.3926 76.398 71.5634 76.9855C71.1571 77.273 70.6813 77.4168 70.2084 77.4168C69.7147 77.4168 69.2192 77.2614 68.8046 76.9489L62.9167 72.5422L57.0289 76.9489C56.2164 77.5593 55.1013 77.5771 54.2701 76.9896C53.4409 76.4021 53.083 75.344 53.3871 74.3732L55.4989 67.6146L49.2611 62.8783C48.4591 62.2699 48.1346 61.2201 48.4555 60.2659C48.7784 59.3118 49.6709 58.6668 50.6772 58.6668H58.3798L60.6991 51.9163C61.0241 50.9705 61.9167 50.3335 62.9167 50.3335Z"></path>
  </symbol>

  <symbol fill="none" xmlns="http://www.w3.org/2000/svg" viewBox="0 0 80 60" id="arrow_dropdown">
    <path
      d="M46.8905 55.9733C43.4442 60.5649 36.5558 60.5649 33.1095 55.9733L1.85054 14.3255C-2.41202 8.6463 1.64012 0.538422 8.74101 0.538422L71.259 0.538416C78.3599 0.538416 82.412 8.64629 78.1495 14.3255L46.8905 55.9733Z"
      fill="currentColor"></path>
  </symbol>
  <symbol fill="none" xmlns="http://www.w3.org/2000/svg" viewBox="0 0 100 100"
    id="arrow_right_to_arc">
    <g clip-path="url(#clip0_795_3814)">
      <path
        d="M9.37499 50C9.37499 72.4414 27.5586 90.625 50 90.625C52.5976 90.625 54.6875 92.7148 54.6875 95.3125C54.6875 97.9102 52.5976 100 50 100C22.3828 100 -1.3302e-05 77.6172 -1.08877e-05 50C-8.47328e-06 22.3828 22.3828 -6.78551e-06 50 -4.37114e-06C52.5977 -4.14405e-06 54.6875 2.08984 54.6875 4.6875C54.6875 7.28515 52.5977 9.375 50 9.375C27.5586 9.37499 9.37499 27.5586 9.37499 50ZM54.6289 73.75L32.7539 53.4375C31.7969 52.5586 31.25 51.3086 31.25 50C31.25 48.6914 31.7969 47.4609 32.7539 46.5625L54.6289 26.25C56.5234 24.4922 59.4922 24.5898 61.25 26.5039C63.0078 28.418 62.9102 31.3672 60.9961 33.125L47.8711 45.3125L95.3125 45.3125C97.9102 45.3125 100 47.4023 100 50C100 52.5977 97.9102 54.6875 95.3125 54.6875L47.8711 54.6875L60.9961 66.875C62.8906 68.6328 63.0078 71.6016 61.25 73.4961C59.4922 75.3906 56.5234 75.5078 54.6289 73.75Z"
        fill="currentColor"></path>
    </g>
    <defs>
      <clipPath id="clip0_795_3814">
        <rect width="100" height="100" fill="currentColor"
          transform="translate(100 100) rotate(-180)"></rect>
      </clipPath>
    </defs>
  </symbol>
  <symbol xmlns="http://www.w3.org/2000/svg" viewBox="0 0 72 96" id="ptz_camera">
    <path
      d="M24.9281 0.083252C22.9886 0.083252 21.4166 1.65522 21.4166 3.59481C21.4166 5.20522 22.5111 6.60692 24.0736 6.9965L27.6666 7.89575V16.9127C12.4798 18.4828 0.583252 31.3659 0.583252 46.9583V51.1249C0.583335 51.9537 0.912602 52.7485 1.49864 53.3345C2.08467 53.9206 2.87948 54.2498 3.70825 54.2499H57.8749C58.7037 54.2498 59.4985 53.9206 60.0845 53.3345C60.6706 52.7485 60.9998 51.9537 60.9999 51.1249V46.9583C60.9999 31.3659 49.1034 18.4828 33.9166 16.9127V9.45825L66.2408 17.5393C68.87 18.1956 71.4166 16.2072 71.4166 13.4947V4.24992C71.4166 1.94784 69.552 0.083252 67.2499 0.083252H24.9281ZM6.83325 60.4999V71.9583C6.83325 85.1666 17.5833 95.9166 30.7916 95.9166C43.9999 95.9166 54.7499 85.1666 54.7499 71.9583V60.4999H6.83325ZM30.7916 68.8333C35.9791 68.8333 40.1666 73.0208 40.1666 78.2083C40.1666 83.3958 35.9791 87.5833 30.7916 87.5833C25.6041 87.5833 21.4166 83.3958 21.4166 78.2083C21.4166 73.0208 25.6041 68.8333 30.7916 68.8333Z"></path>
  </symbol>
  <symbol xmlns="http://www.w3.org/2000/svg" viewBox="0 0 92 80" id="company">
    <path
      d="M5.37508 0.416572C4.96098 0.410716 4.54985 0.487219 4.16557 0.641637C3.7813 0.796055 3.43154 1.02531 3.13664 1.31607C2.84173 1.60684 2.60756 1.95331 2.44772 2.33537C2.28788 2.71742 2.20557 3.12743 2.20557 3.54157C2.20557 3.95571 2.28788 4.36572 2.44772 4.74778C2.60756 5.12983 2.84173 5.47631 3.13664 5.76707C3.43154 6.05784 3.7813 6.28709 4.16557 6.44151C4.54985 6.59592 4.96098 6.67243 5.37508 6.66657H6.41675V48.4065C2.88758 48.9127 0.166748 51.9582 0.166748 55.6249V76.4582C0.166748 78.1832 1.56675 79.5832 3.29175 79.5832H23.0834C24.2334 79.5832 25.1667 78.6499 25.1667 77.4999V62.9166C25.1667 61.7666 26.1001 60.8332 27.2501 60.8332H33.5001C34.6501 60.8332 35.5834 61.7666 35.5834 62.9166V77.4999C35.5834 78.6499 36.5168 79.5832 37.6668 79.5832H57.4584C59.1834 79.5832 60.5834 78.1832 60.5834 76.4582V55.6249C60.5834 51.9582 57.8626 48.9127 54.3334 48.4065V6.66657H55.3751C55.7892 6.67243 56.2003 6.59592 56.5846 6.44151C56.9689 6.28709 57.3186 6.05784 57.6135 5.76707C57.9084 5.47631 58.1426 5.12983 58.3024 4.74778C58.4623 4.36572 58.5446 3.95571 58.5446 3.54157C58.5446 3.12743 58.4623 2.71742 58.3024 2.33537C58.1426 1.95331 57.9084 1.60684 57.6135 1.31607C57.3186 1.02531 56.9689 0.796055 56.5846 0.641637C56.2003 0.487219 55.7892 0.410716 55.3751 0.416572H5.37508ZM21.0001 14.9999H25.1667C26.3167 14.9999 27.2501 15.9332 27.2501 17.0832V21.2499C27.2501 22.3999 26.3167 23.3332 25.1667 23.3332H21.0001C19.8501 23.3332 18.9167 22.3999 18.9167 21.2499V17.0832C18.9167 15.9332 19.8501 14.9999 21.0001 14.9999ZM35.5834 14.9999H39.7501C40.9001 14.9999 41.8334 15.9332 41.8334 17.0832V21.2499C41.8334 22.3999 40.9001 23.3332 39.7501 23.3332H35.5834C34.4334 23.3332 33.5001 22.3999 33.5001 21.2499V17.0832C33.5001 15.9332 34.4334 14.9999 35.5834 14.9999ZM58.5001 14.9999V45.4239C62.2293 47.3447 64.7501 51.2499 64.7501 55.6249V76.4582C64.7501 77.5811 64.4718 78.6332 64.0177 79.5832H88.7084C90.4376 79.5832 91.8334 78.1874 91.8334 76.4582V26.4582C91.8334 20.1457 86.6876 14.9999 80.3751 14.9999H58.5001ZM21.0001 29.5832H25.1667C26.3167 29.5832 27.2501 30.5166 27.2501 31.6666V35.8332C27.2501 36.9832 26.3167 37.9166 25.1667 37.9166H21.0001C19.8501 37.9166 18.9167 36.9832 18.9167 35.8332V31.6666C18.9167 30.5166 19.8501 29.5832 21.0001 29.5832ZM35.5834 29.5832H39.7501C40.9001 29.5832 41.8334 30.5166 41.8334 31.6666V35.8332C41.8334 36.9832 40.9001 37.9166 39.7501 37.9166H35.5834C34.4334 37.9166 33.5001 36.9832 33.5001 35.8332V31.6666C33.5001 30.5166 34.4334 29.5832 35.5834 29.5832ZM73.0834 29.5832H77.2501C78.4001 29.5832 79.3334 30.5166 79.3334 31.6666V35.8332C79.3334 36.9832 78.4001 37.9166 77.2501 37.9166H73.0834C71.9334 37.9166 71.0001 36.9832 71.0001 35.8332V31.6666C71.0001 30.5166 71.9334 29.5832 73.0834 29.5832ZM21.0001 44.1666H25.1667C26.3167 44.1666 27.2501 45.0999 27.2501 46.2499V50.4166C27.2501 51.5666 26.3167 52.4999 25.1667 52.4999H21.0001C19.8501 52.4999 18.9167 51.5666 18.9167 50.4166V46.2499C18.9167 45.0999 19.8501 44.1666 21.0001 44.1666ZM35.5834 44.1666H39.7501C40.9001 44.1666 41.8334 45.0999 41.8334 46.2499V50.4166C41.8334 51.5666 40.9001 52.4999 39.7501 52.4999H35.5834C34.4334 52.4999 33.5001 51.5666 33.5001 50.4166V46.2499C33.5001 45.0999 34.4334 44.1666 35.5834 44.1666ZM73.0834 44.1666H77.2501C78.4001 44.1666 79.3334 45.0999 79.3334 46.2499V50.4166C79.3334 51.5666 78.4001 52.4999 77.2501 52.4999H73.0834C71.9334 52.4999 71.0001 51.5666 71.0001 50.4166V46.2499C71.0001 45.0999 71.9334 44.1666 73.0834 44.1666ZM73.0834 58.7499H77.2501C78.4001 58.7499 79.3334 59.6832 79.3334 60.8332V64.9999C79.3334 66.1499 78.4001 67.0832 77.2501 67.0832H73.0834C71.9334 67.0832 71.0001 66.1499 71.0001 64.9999V60.8332C71.0001 59.6832 71.9334 58.7499 73.0834 58.7499ZM10.5834 60.8332H14.7501C15.9001 60.8332 16.8334 61.7666 16.8334 62.9166V67.0832C16.8334 68.2332 15.9001 69.1666 14.7501 69.1666H10.5834C9.43342 69.1666 8.50008 68.2332 8.50008 67.0832V62.9166C8.50008 61.7666 9.43342 60.8332 10.5834 60.8332ZM46.0001 60.8332H50.1668C51.3168 60.8332 52.2501 61.7666 52.2501 62.9166V67.0832C52.2501 68.2332 51.3168 69.1666 50.1668 69.1666H46.0001C44.8501 69.1666 43.9168 68.2332 43.9168 67.0832V62.9166C43.9168 61.7666 44.8501 60.8332 46.0001 60.8332Z"></path>
  </symbol>
  <symbol xmlns="http://www.w3.org/2000/svg" viewBox="0 0 80 88" id="centralized_network">
    <path
      d="M39.9999 0.25C38.0706 0.255881 36.203 0.931044 34.7159 2.16029C33.2289 3.38954 32.2144 5.0967 31.8456 6.99049C31.4769 8.88429 31.7766 10.8474 32.6938 12.5448C33.611 14.2422 35.0887 15.5688 36.8749 16.2982V34.0635C35.4224 34.5254 34.089 35.3005 32.9687 36.334L17.5756 27.4432C17.7402 26.2635 17.65 25.0621 17.311 23.9202C16.972 22.7783 16.3922 21.7223 15.6105 20.8234C14.8289 19.9246 13.8637 19.2037 12.7799 18.7095C11.6961 18.2153 10.5189 17.9591 9.32772 17.9583C7.11758 17.9583 4.99797 18.8363 3.43516 20.3991C1.87236 21.9619 0.994385 24.0815 0.994385 26.2917C0.994385 28.5018 1.87236 30.6214 3.43516 32.1842C4.99797 33.747 7.11758 34.625 9.32772 34.625C11.1835 34.6214 12.9849 33.9985 14.4465 32.855L29.8437 41.7458C29.5113 43.2313 29.5085 44.7716 29.8355 46.2583L14.4506 55.1409C12.9874 53.998 11.1844 53.3765 9.32772 53.375C7.11758 53.375 4.99797 54.253 3.43516 55.8158C1.87236 57.3786 0.994385 59.4982 0.994385 61.7083C0.994385 63.9185 1.87236 66.0381 3.43516 67.6009C4.99797 69.1637 7.11758 70.0417 9.32772 70.0417C10.5193 70.041 11.6968 69.7847 12.781 69.2902C13.8651 68.7958 14.8306 68.0745 15.6123 67.1752C16.394 66.2759 16.9737 65.2194 17.3124 64.077C17.6511 62.9346 17.7408 61.7328 17.5756 60.5527L32.9565 51.6742C34.0822 52.7019 35.4199 53.47 36.8749 53.9243V71.6978C35.0862 72.4255 33.6057 73.7519 32.6865 75.4503C31.7674 77.1487 31.4666 79.1135 31.8356 81.0091C32.2047 82.9046 33.2205 84.6132 34.7097 85.8427C36.1988 87.0722 38.0688 87.7464 39.9999 87.75C41.9293 87.7441 43.7968 87.069 45.2839 85.8397C46.771 84.6105 47.7854 82.9033 48.1542 81.0095C48.523 79.1157 48.2232 77.1526 47.306 75.4552C46.3888 73.7578 44.9111 72.4312 43.1249 71.7018V53.9365C44.5774 53.4746 45.9109 52.6995 47.0312 51.666L62.4242 60.5568C62.2596 61.7365 62.3499 62.9379 62.6888 64.0798C63.0278 65.2217 63.6077 66.2777 64.3893 67.1766C65.1709 68.0754 66.1362 68.7963 67.22 69.2905C68.3038 69.7847 69.4809 70.0409 70.6721 70.0417C72.8823 70.0417 75.0019 69.1637 76.5647 67.6009C78.1275 66.0381 79.0055 63.9185 79.0055 61.7083C79.0055 59.4982 78.1275 57.3786 76.5647 55.8158C75.0019 54.253 72.8823 53.375 70.6721 53.375C68.8164 53.3786 67.0149 54.0015 65.5533 55.145L50.1562 46.2542C50.4886 44.7687 50.4914 43.2284 50.1643 41.7417L65.5492 32.859C67.0125 34.002 68.8155 34.6235 70.6721 34.625C72.8823 34.625 75.0019 33.747 76.5647 32.1842C78.1275 30.6214 79.0055 28.5018 79.0055 26.2917C79.0055 24.0815 78.1275 21.9619 76.5647 20.3991C75.0019 18.8363 72.8823 17.9583 70.6721 17.9583C69.4806 17.959 68.303 18.2153 67.2189 18.7098C66.1347 19.2042 65.1693 19.9255 64.3876 20.8248C63.6059 21.7241 63.0261 22.7806 62.6874 23.923C62.3488 25.0654 62.259 26.2672 62.4242 27.4473L47.0434 36.3258C45.9176 35.2981 44.58 34.53 43.1249 34.0757V16.3022C44.9137 15.5745 46.3942 14.2481 47.3133 12.5497C48.2325 10.8513 48.5332 8.88646 48.1642 6.99091C47.7952 5.09536 46.7793 3.38681 45.2901 2.15728C43.801 0.927757 41.9311 0.253587 39.9999 0.25Z"></path>
  </symbol>
  <symbol fill="none" xmlns="http://www.w3.org/2000/svg" viewBox="0 0 100 100" id="pen">
    <g id="pen">
      <path id="Vector"
        d="M80.5352 38.6142L85.6186 33.5308C90.8977 28.2517 90.8977 19.66 85.6186 14.3787C83.0623 11.8246 79.6644 10.4204 76.0415 10.4204C72.4186 10.4204 69.0186 11.8267 66.4644 14.3808L61.3832 19.4621L80.5352 38.6142ZM56.9644 23.8808L19.3207 61.5246C18.5186 62.3267 17.9082 63.3162 17.554 64.3892L10.5748 85.4746C10.2019 86.5954 10.4957 87.8308 11.3311 88.6663C11.929 89.2621 12.7248 89.5808 13.5415 89.5808C13.8707 89.5808 14.2019 89.5288 14.5248 89.4225L35.604 82.4413C36.6811 82.0871 37.6727 81.4767 38.4748 80.6725L76.1165 43.0308L56.9644 23.8808Z"
        fill="currentColor"></path>
    </g>
  </symbol>
  <symbol fill="none" xmlns="http://www.w3.org/2000/svg" viewBox="0 0 100 100" id="sliders">
    <g id="sliders">
      <path
        d="M67.7083 10.4167C62.5677 10.4167 58.3333 14.6511 58.3333 19.7917V20.8334H11.4583C11.0442 20.8276 10.6331 20.9041 10.2488 21.0585C9.86454 21.2129 9.51479 21.4422 9.21988 21.7329C8.92498 22.0237 8.6908 22.3702 8.53097 22.7522C8.37113 23.1343 8.28882 23.5443 8.28882 23.9584C8.28882 24.3726 8.37113 24.7826 8.53097 25.1646C8.6908 25.5467 8.92498 25.8932 9.21988 26.1839C9.51479 26.4747 9.86454 26.7039 10.2488 26.8584C10.6331 27.0128 11.0442 27.0893 11.4583 27.0834H58.3333V28.1251C58.3333 33.2657 62.5677 37.5001 67.7083 37.5001C72.849 37.5001 77.0833 33.2657 77.0833 28.1251V27.0834H88.5417C88.9558 27.0893 89.3669 27.0128 89.7512 26.8584C90.1355 26.7039 90.4852 26.4747 90.7801 26.1839C91.075 25.8932 91.3092 25.5467 91.469 25.1646C91.6289 24.7826 91.7112 24.3726 91.7112 23.9584C91.7112 23.5443 91.6289 23.1343 91.469 22.7522C91.3092 22.3702 91.075 22.0237 90.7801 21.7329C90.4852 21.4422 90.1355 21.2129 89.7512 21.0585C89.3669 20.9041 88.9558 20.8276 88.5417 20.8334H77.0833V19.7917C77.0833 14.6511 72.849 10.4167 67.7083 10.4167ZM67.7083 16.6667C69.4719 16.6667 70.8333 18.0282 70.8333 19.7917V23.4457C70.7782 23.7812 70.7782 24.1234 70.8333 24.4589V28.1251C70.8333 29.8886 69.4719 31.2501 67.7083 31.2501C65.9448 31.2501 64.5833 29.8886 64.5833 28.1251V24.4711C64.6384 24.1356 64.6384 23.7934 64.5833 23.4579V19.7917C64.5833 18.0282 65.9448 16.6667 67.7083 16.6667ZM32.2917 36.4584C27.151 36.4584 22.9167 40.6928 22.9167 45.8334V46.8751H11.4583C11.0442 46.8692 10.6331 46.9457 10.2488 47.1002C9.86454 47.2546 9.51479 47.4838 9.21988 47.7746C8.92498 48.0653 8.6908 48.4118 8.53097 48.7939C8.37113 49.1759 8.28882 49.5859 8.28882 50.0001C8.28882 50.4142 8.37113 50.8242 8.53097 51.2063C8.6908 51.5883 8.92498 51.9348 9.21988 52.2256C9.51479 52.5163 9.86454 52.7456 10.2488 52.9C10.6331 53.0544 11.0442 53.1309 11.4583 53.1251H22.9167V54.1668C22.9167 59.3074 27.151 63.5418 32.2917 63.5418C37.4323 63.5418 41.6667 59.3074 41.6667 54.1668V53.1251H88.5417C88.9558 53.1309 89.3669 53.0544 89.7512 52.9C90.1355 52.7456 90.4852 52.5163 90.7801 52.2256C91.075 51.9348 91.3092 51.5883 91.469 51.2063C91.6289 50.8242 91.7112 50.4142 91.7112 50.0001C91.7112 49.5859 91.6289 49.1759 91.469 48.7939C91.3092 48.4118 91.075 48.0653 90.7801 47.7746C90.4852 47.4838 90.1355 47.2546 89.7512 47.1002C89.3669 46.9457 88.9558 46.8692 88.5417 46.8751H41.6667V45.8334C41.6667 40.6928 37.4323 36.4584 32.2917 36.4584ZM32.2917 42.7084C34.0552 42.7084 35.4167 44.0699 35.4167 45.8334V49.4874C35.3616 49.8229 35.3616 50.1651 35.4167 50.5006V54.1668C35.4167 55.9303 34.0552 57.2918 32.2917 57.2918C30.5281 57.2918 29.1667 55.9303 29.1667 54.1668V50.5128C29.2218 50.1773 29.2218 49.8351 29.1667 49.4996V45.8334C29.1667 44.0699 30.5281 42.7084 32.2917 42.7084ZM63.5417 62.5001C58.401 62.5001 54.1667 66.7345 54.1667 71.8751V72.9168H11.4583C11.0442 72.9109 10.6331 72.9874 10.2488 73.1418C9.86454 73.2962 9.51479 73.5255 9.21988 73.8162C8.92498 74.107 8.6908 74.4535 8.53097 74.8355C8.37113 75.2176 8.28882 75.6276 8.28882 76.0418C8.28882 76.4559 8.37113 76.8659 8.53097 77.248C8.6908 77.63 8.92498 77.9765 9.21988 78.2673C9.51479 78.558 9.86454 78.7873 10.2488 78.9417C10.6331 79.0961 11.0442 79.1726 11.4583 79.1668H54.1667V80.2084C54.1667 85.349 58.401 89.5834 63.5417 89.5834C68.6823 89.5834 72.9167 85.349 72.9167 80.2084V79.1668H88.5417C88.9558 79.1726 89.3669 79.0961 89.7512 78.9417C90.1355 78.7873 90.4852 78.558 90.7801 78.2673C91.075 77.9765 91.3092 77.63 91.469 77.248C91.6289 76.8659 91.7112 76.4559 91.7112 76.0418C91.7112 75.6276 91.6289 75.2176 91.469 74.8355C91.3092 74.4535 91.075 74.107 90.7801 73.8162C90.4852 73.5255 90.1355 73.2962 89.7512 73.1418C89.3669 72.9874 88.9558 72.9109 88.5417 72.9168H72.9167V71.8751C72.9167 66.7345 68.6823 62.5001 63.5417 62.5001ZM63.5417 68.7501C65.3052 68.7501 66.6667 70.1115 66.6667 71.8751V75.5291C66.6116 75.8645 66.6116 76.2068 66.6667 76.5422V80.2084C66.6667 81.972 65.3052 83.3334 63.5417 83.3334C61.7781 83.3334 60.4167 81.972 60.4167 80.2084V76.5545C60.4718 76.219 60.4718 75.8767 60.4167 75.5413V71.8751C60.4167 70.1115 61.7781 68.7501 63.5417 68.7501Z"
        fill="currentColor"></path>
    </g>
  </symbol>
  <symbol fill="none" xmlns="http://www.w3.org/2000/svg" viewBox="0 0 100 100" id="close">
    <g id="close">
      <path
        d="M81.2134 14.5224C80.1123 14.5484 79.0663 15.0092 78.304 15.8041L50 44.1082L21.696 15.8041C21.3072 15.4045 20.8422 15.087 20.3285 14.8703C19.8147 14.6536 19.2628 14.5422 18.7052 14.5427C17.8767 14.5438 17.0673 14.7918 16.3803 15.2551C15.6934 15.7183 15.1602 16.3759 14.8488 17.1437C14.5374 17.9115 14.462 18.7547 14.6321 19.5656C14.8023 20.3764 15.2103 21.1182 15.804 21.6961L44.1081 50.0001L15.804 78.3041C15.4041 78.6881 15.0849 79.1479 14.8649 79.6568C14.645 80.1657 14.5288 80.7133 14.5232 81.2677C14.5175 81.822 14.6225 82.3719 14.8321 82.8851C15.0416 83.3984 15.3515 83.8646 15.7435 84.2566C16.1355 84.6486 16.6017 84.9585 17.115 85.168C17.6282 85.3776 18.1781 85.4826 18.7324 85.4769C19.2868 85.4713 19.8344 85.3551 20.3433 85.1352C20.8521 84.9152 21.312 84.596 21.696 84.1961L50 55.892L78.304 84.1961C78.688 84.596 79.1478 84.9152 79.6567 85.1352C80.1656 85.3551 80.7132 85.4713 81.2676 85.477C81.8219 85.4826 82.3718 85.3776 82.885 85.168C83.3983 84.9585 83.8646 84.6486 84.2566 84.2567C84.6485 83.8647 84.9584 83.3984 85.1679 82.8851C85.3775 82.3719 85.4825 81.822 85.4768 81.2677C85.4712 80.7133 85.355 80.1657 85.1351 79.6568C84.9151 79.1479 84.5959 78.6881 84.196 78.3041L55.8919 50.0001L84.196 21.6961C84.8023 21.1147 85.2187 20.3636 85.3907 19.5414C85.5627 18.7192 85.4821 17.8642 85.1596 17.0885C84.8371 16.3129 84.2878 15.6528 83.5836 15.1949C82.8793 14.737 82.0532 14.5026 81.2134 14.5224Z"
        fill="currentColor"></path>
    </g>
  </symbol>
  <symbol fill="none" xmlns="http://www.w3.org/2000/svg" viewBox="0 0 100 100" id="done">
    <g id="done">
      <path
        d="M90.564 18.7215C89.7525 18.7452 88.9819 19.0837 88.4156 19.6655L34.3751 73.706L11.5846 50.9155C11.2966 50.6156 10.9517 50.3762 10.57 50.2112C10.1884 50.0463 9.77767 49.9591 9.36192 49.9549C8.94617 49.9507 8.53376 50.0294 8.14883 50.1866C7.76391 50.3438 7.41421 50.5761 7.12022 50.8701C6.82622 51.1641 6.59385 51.5138 6.43669 51.8987C6.27954 52.2837 6.20077 52.6961 6.205 53.1118C6.20922 53.5276 6.29636 53.9383 6.46131 54.32C6.62626 54.7016 6.8657 55.0465 7.16561 55.3345L32.1656 80.3345C32.7517 80.9203 33.5464 81.2494 34.3751 81.2494C35.2037 81.2494 35.9985 80.9203 36.5846 80.3345L92.8346 24.0845C93.2854 23.6454 93.5932 23.0804 93.7176 22.4636C93.8421 21.8467 93.7774 21.2066 93.532 20.6271C93.2867 20.0476 92.8721 19.5556 92.3425 19.2156C91.813 18.8756 91.1931 18.7034 90.564 18.7215Z"
        fill="currentColor"></path>
    </g>
  </symbol>
  <symbol fill="none" xmlns="http://www.w3.org/2000/svg" viewBox="0 0 21 12" id="chevron_down">
    <g id="chevron_down">
      <path d="M1 1L9.05 9.47369C9.8385 10.3037 11.1615 10.3037 11.95 9.47369L20 1" stroke="black"
        stroke-width="2" stroke-linecap="round"></path>
    </g>
  </symbol>
  <symbol xmlns="http://www.w3.org/2000/svg" viewBox="0 0 28 32" id="arrow_right">
    <g id="arrow_right">
      <path id="Vector"
        d="M27.4124 17.4126L17.4124 27.4126C17.0249 27.8063 16.5124 28.0001 15.9999 28.0001C15.4874 28.0001 14.9762 27.8048 14.5862 27.4142C13.8049 26.6329 13.8049 25.3673 14.5862 24.586L21.1749 18.0001H1.9999C0.895525 18.0001 0 17.1063 0 16.0001C0 14.8938 0.895525 14.0001 1.9999 14.0001H21.1749L14.5874 7.4126C13.8061 6.63135 13.8061 5.36572 14.5874 4.58447C15.3686 3.80322 16.6343 3.80322 17.4155 4.58447L27.4155 14.5845C28.1937 15.3688 28.1937 16.6313 27.4124 17.4126Z"></path>
    </g>
  </symbol>
  <symbol xmlns="http://www.w3.org/2000/svg" viewBox="0 0 27 27" id="menu">
    <g id="menu">
      <path id="Vector"
        d="M3.37491 5.06261C3.22583 5.0605 3.07783 5.08805 2.93949 5.14364C2.80115 5.19923 2.67524 5.28176 2.56907 5.38643C2.4629 5.49111 2.3786 5.61584 2.32106 5.75338C2.26352 5.89092 2.23389 6.03852 2.23389 6.18761C2.23389 6.3367 2.26352 6.48431 2.32106 6.62185C2.3786 6.75939 2.4629 6.88412 2.56907 6.98879C2.67524 7.09347 2.80115 7.176 2.93949 7.23159C3.07783 7.28718 3.22583 7.31472 3.37491 7.31261H23.6249C23.774 7.31472 23.922 7.28718 24.0603 7.23159C24.1987 7.176 24.3246 7.09347 24.4307 6.98879C24.5369 6.88412 24.6212 6.75939 24.6788 6.62185C24.7363 6.48431 24.7659 6.3367 24.7659 6.18761C24.7659 6.03852 24.7363 5.89092 24.6788 5.75338C24.6212 5.61584 24.5369 5.49111 24.4307 5.38643C24.3246 5.28176 24.1987 5.19923 24.0603 5.14364C23.922 5.08805 23.774 5.0605 23.6249 5.06261H3.37491ZM3.37491 12.3751C3.22583 12.373 3.07783 12.4005 2.93949 12.4561C2.80115 12.5117 2.67524 12.5943 2.56907 12.6989C2.4629 12.8036 2.3786 12.9283 2.32106 13.0659C2.26352 13.2034 2.23389 13.351 2.23389 13.5001C2.23389 13.6492 2.26352 13.7968 2.32106 13.9343C2.3786 14.0719 2.4629 14.1966 2.56907 14.3013C2.67524 14.406 2.80115 14.4885 2.93949 14.5441C3.07783 14.5997 3.22583 14.6272 3.37491 14.6251H23.6249C23.774 14.6272 23.922 14.5997 24.0603 14.5441C24.1987 14.4885 24.3246 14.406 24.4307 14.3013C24.5369 14.1966 24.6212 14.0719 24.6788 13.9343C24.7363 13.7968 24.7659 13.6492 24.7659 13.5001C24.7659 13.351 24.7363 13.2034 24.6788 13.0659C24.6212 12.9283 24.5369 12.8036 24.4307 12.6989C24.3246 12.5943 24.1987 12.5117 24.0603 12.4561C23.922 12.4005 23.774 12.373 23.6249 12.3751H3.37491ZM3.37491 19.6876C3.22583 19.6855 3.07783 19.713 2.93949 19.7686C2.80115 19.8242 2.67524 19.9068 2.56907 20.0114C2.4629 20.1161 2.3786 20.2408 2.32106 20.3784C2.26352 20.5159 2.23389 20.6635 2.23389 20.8126C2.23389 20.9617 2.26352 21.1093 2.32106 21.2468C2.3786 21.3844 2.4629 21.5091 2.56907 21.6138C2.67524 21.7185 2.80115 21.801 2.93949 21.8566C3.07783 21.9122 3.22583 21.9397 3.37491 21.9376H23.6249C23.774 21.9397 23.922 21.9122 24.0603 21.8566C24.1987 21.801 24.3246 21.7185 24.4307 21.6138C24.5369 21.5091 24.6212 21.3844 24.6788 21.2468C24.7363 21.1093 24.7659 20.9617 24.7659 20.8126C24.7659 20.6635 24.7363 20.5159 24.6788 20.3784C24.6212 20.2408 24.5369 20.1161 24.4307 20.0114C24.3246 19.9068 24.1987 19.8242 24.0603 19.7686C23.922 19.713 23.774 19.6855 23.6249 19.6876H3.37491Z"></path>
    </g>
  </symbol>
  <symbol xmlns="http://www.w3.org/2000/svg" viewBox="0 0 42 56" id="location_dot">
    <g id="location_dot" clip-path="url(#clip0_80_450)">
      <path id="Vector"
        d="M18.4078 54.6C12.6984 47.5781 0 30.5594 0 21C0 9.40187 9.40187 0 21 0C32.5938 0 42 9.40187 42 21C42 30.5594 29.2031 47.5781 23.5922 54.6C22.2469 56.2734 19.7531 56.2734 18.4078 54.6ZM21 28C24.8609 28 28 24.8609 28 21C28 17.1391 24.8609 14 21 14C17.1391 14 14 17.1391 14 21C14 24.8609 17.1391 28 21 28Z"></path>
    </g>
    <defs>
      <clipPath id="clip0_80_450">
        <rect width="42" height="56"></rect>
      </clipPath>
    </defs>
  </symbol>
  <symbol xmlns="http://www.w3.org/2000/svg" viewBox="0 0 21 12" id="chevron_up">
    <path id="chevron_up" d="M20 11L11.95 2.52631C11.1615 1.69631 9.8385 1.69631 9.05 2.52632L1 11"
      stroke="black" stroke-width="2" stroke-linecap="round"></path>
  </symbol>
  <symbol xmlns="http://www.w3.org/2000/svg" viewBox="0 0 34 34" id="steering_wheel">
    <g id="steering_wheel">
      <path id="Vector"
        d="M17 2.83325C9.18853 2.83325 2.83331 9.18847 2.83331 16.9999C2.83331 24.8114 9.18853 31.1666 17 31.1666C24.8114 31.1666 31.1666 24.8114 31.1666 16.9999C31.1666 9.18847 24.8114 2.83325 17 2.83325ZM17 4.95825C23.663 4.95825 29.0416 10.3369 29.0416 16.9999C29.0416 23.6629 23.663 29.0416 17 29.0416C10.337 29.0416 4.95831 23.6629 4.95831 16.9999C4.95831 10.3369 10.337 4.95825 17 4.95825ZM17 12.0416C12.9164 12.0416 8.73209 13.0894 6.94497 13.5966L6.9422 13.598C6.58024 14.6669 6.37498 15.8085 6.37498 16.9999C6.37498 18.049 6.53297 19.0596 6.8163 20.0173L6.81769 20.0186C12.0239 20.9168 13.5427 24.9474 13.984 27.1836V27.185C14.941 27.4676 15.9516 27.6249 17 27.6249C18.0483 27.6249 19.059 27.4676 20.0159 27.185V27.1836C20.4565 24.9474 21.976 20.9161 27.1823 20.0186L27.1837 20.0173C27.467 19.0596 27.625 18.049 27.625 16.9999C27.625 15.8085 27.4197 14.6669 27.0578 13.598L27.055 13.5966C25.2679 13.0894 21.0835 12.0416 17 12.0416ZM17 15.5833C18.1737 15.5833 19.125 16.5345 19.125 17.7083C19.125 18.882 18.1737 19.8333 17 19.8333C15.8263 19.8333 14.875 18.882 14.875 17.7083C14.875 16.5345 15.8263 15.5833 17 15.5833Z"></path>
    </g>
  </symbol>
  <symbol xmlns="http://www.w3.org/2000/svg" viewBox="0 0 34 34" id="cardboard_box">
    <g id="cardboard_box">
      <path id="Vector"
        d="M15.9375 9.20833V4.25H9.84937C8.90092 4.25 8.00842 4.66792 7.40067 5.39679L4.98879 8.29104C4.75929 8.56588 4.58292 8.87754 4.45825 9.20833H15.9375ZM18.0625 9.20833H29.5417C29.4171 8.87754 29.2407 8.56588 29.0112 8.29104L26.5993 5.39679C25.9909 4.66792 25.0991 4.25 24.1506 4.25H18.0625V9.20833ZM4.25 11.3333V25.8542C4.25 28.0025 5.99817 29.75 8.14583 29.75H25.8542C28.0018 29.75 29.75 28.0025 29.75 25.8542V11.3333H4.25ZM20.1875 16.2917H13.8125C13.226 16.2917 12.75 15.8164 12.75 15.2292C12.75 14.642 13.226 14.1667 13.8125 14.1667H20.1875C20.774 14.1667 21.25 14.642 21.25 15.2292C21.25 15.8164 20.774 16.2917 20.1875 16.2917Z"></path>
    </g>
  </symbol>
  <symbol fill="none" xmlns="http://www.w3.org/2000/svg" viewBox="0 0 20 20" id="arrow_down">
    <g id="arrow_down">
      <path id="Vector 4"
        d="M1 11L7.87868 17.8787C9.05026 19.0503 10.9497 19.0503 12.1213 17.8787L19 11"
        stroke="white" stroke-width="2" stroke-linecap="round"></path>
      <path id="Vector 5" d="M10 1L10 11" stroke="white" stroke-width="2" stroke-linecap="round"></path>
    </g>
  </symbol>

  <symbol xmlns="http://www.w3.org/2000/svg" viewBox="0 0 37 36" id="internet">
    <g id="internet">
      <path id="Vector"
        d="M11.0537 22.5H3.79248C3.32998 21.075 3.08331 19.5675 3.08331 18C3.08331 16.4325 3.32998 14.925 3.79248 13.5H11.0537C10.8764 14.9775 10.7916 16.5 10.7916 18C10.7916 19.5 10.8764 21.0225 11.0537 22.5ZM11.3852 24.75C11.9248 27.75 12.8421 30.465 14.1062 32.3775C10.0054 31.2 6.62144 28.4025 4.7329 24.75H11.3852ZM11.3852 11.25H4.7329C6.62144 7.5975 10.0054 4.8 14.1062 3.6225C12.8421 5.535 11.9248 8.25 11.3852 11.25ZM21.8069 24.75V29.5275C20.8819 31.605 19.7564 32.8725 18.6696 32.9925C18.6156 33 18.5539 33 18.5 33C18.446 33 18.3844 33 18.3304 32.9925C16.5575 32.7975 14.6921 29.5725 13.7362 24.75H21.8069ZM13.7362 11.25C14.6921 6.4275 16.5575 3.2025 18.3304 3.0075C18.3844 3 18.446 3 18.5 3C18.5539 3 18.6156 3 18.6696 3.0075C20.4425 3.2025 22.3079 6.4275 23.2637 11.25H13.7362ZM23.7802 15.12C23.5721 15.15 23.3639 15.2175 23.1712 15.3C22.3387 15.6825 21.8069 16.4925 21.8069 17.37V22.5H13.3739C13.2044 21.09 13.1041 19.5825 13.1041 18C13.1041 16.4175 13.2044 14.91 13.3739 13.5H23.626C23.6877 14.025 23.7416 14.565 23.7802 15.12ZM25.6148 11.25C25.0752 8.25 24.1579 5.535 22.8937 3.6225C26.9946 4.8 30.3785 7.5975 32.2671 11.25H25.6148ZM33.9166 18C33.9166 19.3725 33.7239 20.7 33.3694 21.9675L26.1621 16.035C26.1158 15.18 26.0464 14.3325 25.9462 13.5H33.2075C33.67 14.925 33.9166 16.4325 33.9166 18ZM35.3427 26.235C35.2271 26.5425 34.9264 26.745 34.5873 26.745H30.7023L33.098 31.875C33.4518 32.6318 33.105 33.5243 32.3249 33.864L31.5625 34.1963C30.7878 34.5338 29.879 34.1993 29.5283 33.4478L27.1564 28.365L24.7669 31.155C24.551 31.41 24.1964 31.5 23.8804 31.3875C23.5644 31.275 23.3485 30.9825 23.3485 30.6525V17.37C23.3485 17.07 23.5335 16.7925 23.811 16.665C24.0962 16.5375 24.4354 16.5825 24.6744 16.7775L35.1114 25.3725C35.3658 25.5825 35.4583 25.9275 35.3427 26.235Z"></path>
    </g>
  </symbol>
  <symbol xmlns="http://www.w3.org/2000/svg" viewBox="0 0 45 43" id="dollar_coin">
    <g id="dollar_coin">
      <path id="Vector"
        d="M22.5 6.27075C13.7119 6.27075 6.5625 13.1024 6.5625 21.4999C6.5625 29.8975 13.7119 36.7291 22.5 36.7291C31.2881 36.7291 38.4375 29.8975 38.4375 21.4999C38.4375 13.1024 31.2881 6.27075 22.5 6.27075ZM23.7891 28.8905V30.1223C23.7891 30.8022 23.2125 31.3541 22.5 31.3541C21.7875 31.3541 21.2109 30.8022 21.2109 30.1223V28.8861C19.6078 28.8744 18.1406 28.3145 17.0766 27.2978C16.5731 26.8167 16.5731 26.0373 17.0766 25.5562C17.58 25.0752 18.3956 25.0752 18.8991 25.5562C19.3144 25.9531 20.0625 26.427 21.2597 26.427H23.7891C24.855 26.427 25.7222 25.5984 25.7222 24.5798C25.7222 23.5612 24.855 22.7326 23.7891 22.7326H21.5334C19.0462 22.7326 17.0222 20.7985 17.0222 18.4218C17.0222 16.15 18.8766 14.3028 21.2119 14.1415V12.8784C21.2109 12.1976 21.7875 11.6458 22.5 11.6458C23.2125 11.6458 23.7891 12.1976 23.7891 12.8775V14.1272C25.7784 14.224 27.0487 15.3115 27.45 15.9045C27.8362 16.4761 27.6637 17.2384 27.0656 17.6075C26.4666 17.9739 25.6687 17.8118 25.2844 17.2402C25.2806 17.2402 24.7266 16.5728 23.5153 16.5728H21.5325C20.4666 16.5728 19.5994 17.4015 19.5994 18.42C19.5994 19.4386 20.4666 20.2673 21.5325 20.2673H23.7881C26.2753 20.2673 28.2994 22.2014 28.2994 24.578C28.2994 26.9546 26.2762 28.8905 23.7891 28.8905Z"></path>
    </g>
  </symbol>
  <symbol xmlns="http://www.w3.org/2000/svg" viewBox="0 0 45 43" id="two_tickets">
    <g id="two_tickets">
      <path id="Vector"
        d="M40.1522 10.75L39.1791 6.79938C38.9784 5.98418 38.4581 5.2917 37.7128 4.85095C36.9666 4.4102 36.0853 4.27313 35.2341 4.46484L7.27875 10.75H40.1522ZM38.9062 37.625H6.09375C4.28438 37.625 2.8125 36.2186 2.8125 34.4896V29.9836C2.8125 29.5975 2.98688 29.2302 3.28969 28.9748C3.5925 28.7195 3.99563 28.5986 4.39781 28.6506C4.49063 28.6622 4.58906 28.6667 4.6875 28.6667C6.75563 28.6667 8.4375 27.0596 8.4375 25.0833C8.4375 23.1071 6.75563 21.5 4.6875 21.5C4.58812 21.5 4.48687 21.5054 4.39406 21.5161C3.99094 21.5645 3.59156 21.4454 3.28781 21.1901C2.98594 20.9356 2.8125 20.5683 2.8125 20.1831V15.6771C2.8125 13.9481 4.28438 12.5417 6.09375 12.5417H38.9062C40.7156 12.5417 42.1875 13.9481 42.1875 15.6771V20.1831C42.1875 20.5683 42.0141 20.9356 41.7122 21.1909C41.4094 21.4463 41.0128 21.5645 40.6059 21.517C40.5131 21.5054 40.4119 21.5 40.3125 21.5C38.2444 21.5 36.5625 23.1071 36.5625 25.0833C36.5625 27.0596 38.2444 28.6667 40.3125 28.6667C40.4109 28.6667 40.5094 28.6622 40.6031 28.6506C41.0025 28.5986 41.4066 28.7195 41.7113 28.9748C42.0131 29.2293 42.1875 29.5975 42.1875 29.9836V34.4896C42.1875 36.2186 40.7156 37.625 38.9062 37.625Z"></path>
    </g>
  </symbol>
  <symbol xmlns="http://www.w3.org/2000/svg" viewBox="0 0 43 43" id="shield_check">
    <g id="shield_check">
      <path id="Vector"
        d="M21.5437 1.79167C21.1972 1.78086 20.8599 1.90435 20.6024 2.13636C20.6024 2.13636 13.8766 8.0625 5.82288 8.0625C5.4665 8.06254 5.12474 8.20412 4.87274 8.45612C4.62075 8.70811 4.47916 9.04988 4.47913 9.40625V20.389C4.47913 26.3714 7.24673 36.2153 20.9786 41.9992C21.1436 42.0687 21.3209 42.1045 21.5 42.1045C21.679 42.1045 21.8563 42.0687 22.0214 41.9992C35.7532 36.2153 38.5208 26.3714 38.5208 20.389V9.40625C38.5208 9.04988 38.3792 8.70811 38.1272 8.45612C37.8752 8.20412 37.5334 8.06254 37.177 8.0625C29.1233 8.0625 22.3975 2.13636 22.3975 2.13636C22.1624 1.9245 21.86 1.80243 21.5437 1.79167ZM28.217 16.125C28.5607 16.125 28.9046 16.2562 29.167 16.5187C29.692 17.0427 29.692 17.8948 29.167 18.4188L20.2087 27.3772C19.948 27.6396 19.6044 27.7708 19.2604 27.7708C18.9164 27.7708 18.5728 27.6396 18.3103 27.3772L13.8311 22.898C13.3062 22.3739 13.3062 21.5219 13.8311 20.9978C14.3561 20.4729 15.2063 20.4729 15.7313 20.9978L19.2586 24.5269L27.2669 16.5187C27.5294 16.2562 27.8732 16.125 28.217 16.125Z"></path>
    </g>
  </symbol>

</svg>